<svg xmlns="http://www.w3.org/2000/svg" xmlns:xlink="http://www.w3.org/1999/xlink" width="1230" zoomAndPan="magnify" viewBox="0 0 922.5 225" height="300" preserveAspectRatio="xMidYMid meet" version="1.0"><defs><g/><clipPath id="id1"><path d="M 687 109 L 899 109 L 899 166 L 687 166 Z M 687 109 " clip-rule="nonzero"/></clipPath><clipPath id="id2"><path d="M 677.589844 154.578125 L 897.316406 106.148438 L 907.96875 154.488281 L 688.246094 202.917969 Z M 677.589844 154.578125 " clip-rule="nonzero"/></clipPath><clipPath id="id3"><path d="M 908.074219 154.082031 L 688.347656 202.511719 L 677.691406 154.171875 L 897.417969 105.742188 Z M 908.074219 154.082031 " clip-rule="nonzero"/></clipPath><clipPath id="id4"><path d="M 699 134 L 902 134 L 902 199 L 699 199 Z M 699 134 " clip-rule="nonzero"/></clipPath><clipPath id="id5"><path d="M 677.589844 154.578125 L 897.316406 106.148438 L 907.96875 154.488281 L 688.246094 202.917969 Z M 677.589844 154.578125 " clip-rule="nonzero"/></clipPath><clipPath id="id6"><path d="M 908.074219 154.082031 L 688.347656 202.511719 L 677.691406 154.171875 L 897.417969 105.742188 Z M 908.074219 154.082031 " clip-rule="nonzero"/></clipPath><clipPath id="id7"><path d="M 693 126 L 900 126 L 900 193 L 693 193 Z M 693 126 " clip-rule="nonzero"/></clipPath><clipPath id="id8"><path d="M 677.589844 154.578125 L 897.316406 106.148438 L 907.96875 154.488281 L 688.246094 202.917969 Z M 677.589844 154.578125 " clip-rule="nonzero"/></clipPath><clipPath id="id9"><path d="M 908.074219 154.082031 L 688.347656 202.511719 L 677.691406 154.171875 L 897.417969 105.742188 Z M 908.074219 154.082031 " clip-rule="nonzero"/></clipPath><clipPath id="id10"><path d="M 682 120 L 901 120 L 901 180 L 682 180 Z M 682 120 " clip-rule="nonzero"/></clipPath><clipPath id="id11"><path d="M 677.589844 154.578125 L 897.316406 106.148438 L 907.96875 154.488281 L 688.246094 202.917969 Z M 677.589844 154.578125 " clip-rule="nonzero"/></clipPath><clipPath id="id12"><path d="M 908.074219 154.082031 L 688.347656 202.511719 L 677.691406 154.171875 L 897.417969 105.742188 Z M 908.074219 154.082031 " clip-rule="nonzero"/></clipPath></defs><g fill="#f39200" fill-opacity="1"><g transform="translate(10.277343, 176.608056)"><g><path d="M 129.648438 -150.253906 L 92.300781 -150.253906 L 92.300781 -91.011719 L 52.375 -91.011719 L 52.375 -150.253906 L 15.027344 -150.253906 L 15.027344 0 L 52.375 0 L 52.375 -63.320312 L 92.300781 -63.320312 L 92.300781 0 L 129.648438 0 Z M 129.648438 -150.253906 "/></g></g></g><g fill="#ffffff" fill-opacity="1"><g transform="translate(154.734365, 176.608056)"><g><path d="M 60.316406 1.933594 C 91.65625 1.933594 112.476562 -22.753906 112.476562 -54.304688 C 112.476562 -86.074219 91.65625 -110.757812 60.316406 -110.757812 C 29.40625 -110.757812 8.585938 -86.074219 8.585938 -54.734375 C 8.585938 -19.320312 28.546875 1.933594 60.316406 1.933594 Z M 60.316406 -23.824219 C 50.65625 -23.824219 44.21875 -34.773438 44.21875 -55.164062 C 44.21875 -70.835938 50.65625 -85.429688 60.316406 -85.429688 C 70.191406 -85.429688 76.628906 -71.050781 76.628906 -54.949219 C 76.628906 -38.421875 70.191406 -23.824219 60.316406 -23.824219 Z M 60.316406 -23.824219 "/></g></g></g><g fill="#ffffff" fill-opacity="1"><g transform="translate(275.582101, 176.608056)"><g><path d="M 56.023438 -82.210938 L 81.78125 -82.210938 L 81.78125 -108.183594 L 56.023438 -108.183594 L 56.023438 -136.515625 L 20.390625 -136.515625 L 20.390625 -108.183594 L 2.359375 -108.183594 L 2.359375 -82.210938 L 20.390625 -82.210938 L 20.390625 -35.632812 C 20.390625 -14.167969 35.632812 0 58.8125 0 L 82.210938 0 L 82.210938 -25.972656 L 66.113281 -25.972656 C 60.101562 -25.972656 56.023438 -30.480469 56.023438 -37.347656 Z M 56.023438 -82.210938 "/></g></g></g><g fill="#f39200" fill-opacity="1"><g transform="translate(363.152325, 176.608056)"><g><path d="M 37.347656 0 L 85.644531 0 L 98.308594 -112.691406 L 100.457031 -112.691406 L 113.335938 0 L 161.203125 0 L 196.621094 -151.542969 L 157.339844 -151.542969 L 135.660156 -26.617188 L 133.511719 -26.617188 L 118.488281 -151.542969 L 79.851562 -151.542969 L 65.253906 -26.617188 L 63.105469 -26.617188 L 41 -151.542969 L 1.71875 -151.542969 Z M 37.347656 0 "/></g></g></g><g fill="#ffffff" fill-opacity="1"><g transform="translate(561.70309, 176.608056)"><g><path d="M 117.199219 -25.972656 L 113.980469 -25.972656 C 112.046875 -25.972656 110.757812 -27.476562 110.757812 -30.050781 L 110.757812 -60.960938 C 110.757812 -91.011719 90.367188 -110.757812 59.457031 -110.757812 C 30.050781 -110.757812 9.015625 -93.585938 9.015625 -70.835938 L 42.285156 -70.835938 C 42.285156 -77.488281 48.511719 -84.785156 59.457031 -84.785156 C 70.191406 -84.785156 77.488281 -78.777344 77.488281 -69.761719 C 77.488281 -67.398438 73.625 -65.253906 67.398438 -63.964844 C 64.179688 -63.320312 60.101562 -62.890625 37.777344 -60.746094 C 19.53125 -58.597656 8.371094 -47.007812 8.371094 -31.125 C 8.371094 -11.589844 22.109375 1.503906 42.929688 1.503906 C 60.316406 1.503906 76.414062 -9.875 82.855469 -27.046875 L 84.359375 -27.046875 L 83.929688 -23.398438 C 81.996094 -9.445312 90.367188 0 105.179688 0 L 117.199219 0 Z M 55.378906 -23.824219 C 47.4375 -23.824219 42.285156 -28.121094 42.285156 -34.773438 C 42.285156 -48.941406 68.902344 -43.789062 76.84375 -51.515625 L 77.488281 -51.515625 L 77.488281 -42.285156 C 76.199219 -31.125 67.398438 -23.824219 55.378906 -23.824219 Z M 55.378906 -23.824219 "/></g></g></g><g fill="#ffffff" fill-opacity="1"><g transform="translate(682.550826, 176.608056)"><g><path d="M 30.480469 0 L 79.207031 0 L 108.613281 -108.398438 L 72.121094 -108.398438 L 56.023438 -27.476562 L 53.449219 -27.476562 L 37.5625 -108.398438 L 1.074219 -108.398438 Z M 30.480469 0 "/></g></g></g><g fill="#ffffff" fill-opacity="1"><g transform="translate(792.022106, 176.608056)"><g><path d="M 108.398438 -32.414062 C 95.089844 -27.90625 79.636719 -26.1875 68.257812 -27.046875 C 52.804688 -27.90625 42.929688 -34.988281 41.855469 -47.867188 L 41.855469 -49.371094 L 111.617188 -49.371094 L 111.617188 -53.878906 C 110.117188 -92.945312 95.949219 -110.757812 60.101562 -110.757812 C 29.191406 -110.757812 8.585938 -88.652344 8.585938 -54.519531 C 8.585938 -11.160156 37.777344 1.933594 66.113281 1.933594 C 83.929688 1.71875 101.957031 -3.433594 108.828125 -7.941406 Z M 42.070312 -62.890625 C 42.714844 -75.769531 50.441406 -84.144531 60.960938 -84.144531 C 71.90625 -84.144531 78.5625 -76.414062 78.5625 -63.105469 Z M 42.070312 -62.890625 "/></g></g></g><g clip-path="url(#id1)"><g clip-path="url(#id2)"><g clip-path="url(#id3)"><path fill="#f39200" d="M 700.816406 154.859375 C 700.816406 154.859375 701.070312 154.835938 701.320312 154.8125 C 704.8125 154.433594 708.332031 154.175781 711.839844 154.445312 C 712.425781 154.476562 713.015625 154.507812 713.59375 154.511719 C 715.949219 154.511719 718.269531 154.8125 720.570312 155.3125 C 722.628906 155.738281 724.664062 156.199219 726.699219 156.660156 C 727.34375 156.808594 728.019531 156.953125 728.605469 157.277344 C 729.40625 157.6875 730.234375 157.796875 731.054688 157.714844 C 734.15625 157.453125 737.199219 156.945312 740.074219 155.660156 C 741.304688 155.097656 742.449219 154.457031 743.628906 153.804688 C 744.574219 153.273438 745.429688 152.628906 746.054688 151.648438 C 746.363281 151.15625 746.816406 150.730469 747.253906 150.375 C 749.464844 148.425781 751.476562 146.292969 753.363281 144.023438 C 754.480469 142.671875 755.757812 141.449219 757.042969 140.257812 C 758.59375 138.808594 760.523438 137.929688 762.332031 136.914062 C 763.679688 136.160156 765.101562 135.75 766.578125 135.425781 C 767.160156 135.296875 767.726562 135.238281 768.332031 135.203125 C 770.082031 135.109375 771.847656 135.074219 773.601562 134.984375 C 774.464844 134.953125 775.257812 135.039062 776.046875 135.417969 C 776.441406 135.589844 776.828125 135.734375 777.238281 135.839844 C 778.984375 136.167969 780.675781 136.671875 782.265625 137.460938 C 782.558594 137.621094 782.894531 137.679688 783.234375 137.765625 C 785.570312 138.421875 787.90625 139.074219 790.246094 139.761719 C 791.453125 140.113281 792.664062 140.496094 793.769531 141.128906 C 794.800781 141.714844 795.957031 141.980469 797.121094 142.144531 C 798.847656 142.382812 800.492188 142.085938 801.980469 141.238281 C 803.121094 140.5625 804.246094 139.828125 805.230469 138.894531 C 805.84375 138.304688 806.386719 137.699219 806.871094 136.976562 C 807.984375 135.300781 809.242188 133.691406 809.945312 131.78125 C 810.023438 131.535156 810.164062 131.308594 810.324219 131.144531 C 812.007812 129.148438 813.464844 126.976562 815.773438 125.621094 C 816.148438 125.410156 816.4375 125.117188 816.757812 124.820312 C 817.460938 124.210938 818.273438 123.804688 819.167969 123.476562 C 820.183594 123.121094 821.226562 122.730469 822.25 122.40625 C 822.730469 122.238281 823.214844 122.097656 823.710938 122.019531 C 825.445312 121.703125 827.167969 121.324219 828.914062 121.359375 C 831.183594 121.414062 833.429688 121.375 835.683594 121.816406 C 837.75 122.273438 839.734375 122.941406 841.554688 124.035156 C 843.515625 125.195312 845.5625 126.140625 847.550781 127.261719 C 848.722656 127.914062 849.875 128.601562 851.007812 129.359375 C 853.164062 130.800781 855.550781 131.542969 858.167969 130.996094 C 858.996094 130.8125 859.804688 130.667969 860.644531 130.546875 C 862.332031 130.308594 863.855469 129.613281 865.371094 128.890625 C 865.898438 128.644531 866.394531 128.273438 866.75 127.839844 C 867.773438 126.636719 868.988281 125.558594 869.585938 124.03125 C 869.667969 123.816406 869.839844 123.582031 869.996094 123.417969 C 871.105469 122.167969 872.292969 120.964844 873.363281 119.6875 C 874.183594 118.726562 875.210938 117.980469 875.867188 116.863281 C 877.234375 115.617188 878.527344 114.324219 880.113281 113.324219 C 881.191406 112.664062 882.238281 112.011719 883.28125 111.328125 C 885.054688 110.15625 887.039062 109.523438 889.164062 109.21875 C 889.570312 109.160156 890.011719 109.128906 890.398438 109.273438 C 892.121094 109.769531 893.867188 109.808594 895.625 110.035156 C 897.050781 110.210938 898.050781 111.09375 898.765625 112.300781 C 898.824219 112.417969 898.78125 112.65625 898.710938 112.769531 C 898.636719 112.882812 898.441406 113.023438 898.3125 113.019531 C 898.085938 113.003906 897.859375 112.859375 897.617188 112.78125 C 897.132812 112.628906 896.65625 112.375 896.191406 112.316406 C 894.515625 112.164062 892.847656 112.046875 891.191406 112.28125 C 888.058594 112.679688 885.230469 113.886719 882.625 115.664062 C 882.066406 116.046875 881.5 116.398438 880.976562 116.808594 C 879.808594 117.648438 878.761719 118.59375 877.847656 119.707031 C 875.125 123.003906 872.089844 126.042969 869.054688 129.085938 C 867.417969 130.714844 865.527344 131.941406 863.472656 132.851562 C 862.949219 133.09375 862.363281 133.222656 861.78125 133.351562 C 861.042969 133.515625 860.277344 133.554688 859.554688 133.777344 C 857.152344 134.4375 854.925781 133.824219 852.695312 132.917969 C 852.234375 132.726562 851.773438 132.535156 851.324219 132.246094 C 848.617188 130.503906 845.65625 129.335938 842.789062 127.886719 C 841.914062 127.855469 841.304688 127.144531 840.558594 126.820312 C 838.691406 126.09375 836.734375 125.550781 834.707031 125.414062 C 833.136719 125.304688 831.53125 125.332031 829.9375 125.261719 C 827.550781 125.105469 825.265625 125.707031 823.039062 126.425781 C 819.101562 127.714844 815.886719 130.082031 813.179688 133.148438 C 812.171875 134.277344 811.359375 135.5625 810.472656 136.796875 C 810.226562 137.144531 809.980469 137.492188 809.765625 137.832031 C 808.199219 140.222656 805.980469 141.851562 803.53125 143.167969 C 801.953125 144.039062 800.25 144.347656 798.433594 144.164062 C 796.753906 143.980469 795.101562 143.664062 793.585938 142.925781 C 792.605469 142.425781 791.570312 142.101562 790.492188 141.886719 C 789.746094 141.722656 789.027344 141.523438 788.296875 141.296875 C 787.019531 140.894531 785.746094 140.527344 784.367188 140.40625 C 783.777344 140.375 783.175781 140.28125 782.640625 140.039062 C 780.828125 139.269531 778.890625 139.113281 777.015625 138.777344 C 776.109375 138.621094 775.183594 138.664062 774.257812 138.703125 C 773.074219 138.738281 771.910156 138.863281 770.738281 138.960938 C 768.726562 139.175781 766.804688 139.828125 765.070312 140.859375 C 763.183594 141.957031 761.351562 143.140625 759.621094 144.496094 C 757.9375 145.777344 756.410156 147.1875 755.023438 148.792969 C 753.722656 150.347656 752.207031 151.65625 750.707031 153.027344 C 749.710938 153.925781 748.683594 154.804688 747.6875 155.707031 C 745.296875 157.855469 742.601562 159.523438 739.464844 160.34375 C 738.886719 160.503906 738.347656 160.6875 737.769531 160.847656 C 734.839844 161.722656 731.855469 161.925781 728.847656 161.15625 C 726.496094 160.570312 724.085938 160.160156 721.71875 159.640625 C 719.179688 159.097656 716.578125 158.988281 713.972656 158.847656 C 710.1875 158.640625 706.4375 158.882812 702.699219 159.15625 C 701.265625 159.242188 699.917969 159.703125 698.589844 160.253906 C 697.878906 160.542969 697.207031 160.851562 696.554688 161.257812 C 694.148438 162.761719 691.492188 163.867188 689.203125 165.605469 C 688.953125 165.792969 688.589844 165.902344 688.285156 165.972656 C 688.191406 165.992188 687.996094 165.839844 687.902344 165.699219 C 687.804688 165.558594 687.796875 165.363281 687.824219 165.195312 C 687.992188 164.214844 688.15625 163.207031 688.425781 162.234375 C 688.6875 161.234375 689.238281 160.367188 690.117188 159.816406 C 691.769531 158.835938 693.457031 157.878906 695.125 156.957031 C 695.699219 156.636719 696.355469 156.394531 696.984375 156.191406 C 697.949219 155.878906 698.953125 155.757812 699.851562 155.300781 C 700.066406 154.960938 700.324219 154.96875 700.816406 154.859375 Z M 700.816406 154.859375 " fill-opacity="1" fill-rule="nonzero"/></g></g></g><g clip-path="url(#id4)"><g clip-path="url(#id5)"><g clip-path="url(#id6)"><path fill="#f39200" d="M 714.992188 181.757812 C 716.414062 181.476562 717.742188 181.507812 719.085938 181.472656 C 722.355469 181.402344 725.59375 181.761719 728.824219 182.378906 C 730.402344 182.683594 731.945312 183.089844 733.367188 183.847656 C 735.476562 184.941406 737.707031 185.554688 740.078125 185.652344 C 741.664062 186.113281 743.226562 185.898438 744.828125 185.707031 C 747.335938 185.382812 749.695312 184.539062 752.011719 183.507812 C 752.390625 183.328125 752.71875 183.058594 753.054688 182.824219 C 753.800781 182.269531 754.511719 181.691406 755.257812 181.136719 C 755.953125 180.625 756.539062 180.074219 757.066406 179.402344 C 757.472656 178.894531 757.980469 178.421875 758.457031 177.960938 C 759.5 176.984375 760.539062 176.007812 761.296875 174.769531 C 761.394531 174.617188 761.488281 174.464844 761.597656 174.375 C 762.753906 173.632812 763.429688 172.445312 764.378906 171.488281 C 765.273438 170.578125 766.277344 169.871094 767.25 169.035156 C 767.683594 168.648438 768.105469 168.230469 768.535156 167.84375 C 769.390625 167.039062 770.292969 166.320312 771.550781 166.171875 C 772.394531 166.050781 773.128906 165.597656 773.835938 165.148438 C 776.890625 163.207031 780.222656 162.246094 783.777344 161.851562 C 784.59375 161.769531 785.441406 161.8125 786.28125 161.820312 C 788.808594 161.882812 791.261719 162.347656 793.699219 163.011719 C 796.515625 163.820312 799.390625 164.421875 802.226562 165.164062 C 803.386719 165.457031 804.53125 165.53125 805.722656 165.527344 C 806.746094 165.496094 807.707031 165.320312 808.640625 164.886719 C 809.019531 164.703125 809.40625 164.554688 809.792969 164.40625 C 811.289062 163.75 812.53125 162.792969 813.496094 161.476562 C 813.84375 161.007812 814.183594 160.511719 814.535156 160.046875 C 814.976562 159.425781 815.503906 158.890625 816.15625 158.484375 C 817.703125 157.460938 819.027344 156.164062 820.320312 154.871094 C 821.699219 153.527344 823.203125 152.316406 824.667969 151.054688 C 826.101562 150.410156 827.460938 149.558594 829.066406 149.238281 C 830.632812 148.894531 832.171875 148.554688 833.730469 148.179688 C 835.875 147.671875 838.0625 147.808594 840.207031 148.179688 C 842.015625 148.496094 843.824219 148.941406 845.496094 149.808594 C 846.371094 150.265625 847.363281 150.535156 848.308594 150.878906 C 848.9375 151.097656 849.597656 151.308594 850.199219 151.566406 C 853.128906 152.871094 856.167969 153.792969 859.203125 154.847656 C 859.761719 155.046875 860.339844 155.179688 860.894531 155.351562 C 863.039062 156.015625 865.191406 155.996094 867.351562 155.421875 C 868.484375 155.140625 869.625 154.921875 870.683594 154.296875 C 871.386719 153.851562 872.09375 153.402344 872.707031 152.8125 C 873.886719 151.738281 874.949219 150.5625 876.257812 149.625 C 876.644531 149.34375 876.96875 148.914062 877.269531 148.523438 C 877.949219 147.660156 878.597656 146.800781 879.285156 145.96875 C 879.539062 145.652344 879.863281 145.386719 880.199219 145.148438 C 880.667969 144.785156 881.148438 144.484375 881.652344 144.144531 C 883.109375 143.144531 884.441406 142.035156 885.585938 140.648438 C 885.941406 140.210938 886.441406 139.84375 886.910156 139.480469 C 888.269531 138.496094 889.640625 137.546875 891.039062 136.585938 C 892.238281 135.738281 893.644531 135.394531 895.035156 135.121094 C 896.609375 134.808594 898.1875 134.816406 899.796875 134.949219 C 900.191406 134.992188 900.640625 135.121094 901 135.300781 C 901.257812 135.4375 901.460938 135.785156 901.648438 136.035156 C 901.792969 136.261719 901.464844 136.824219 901.207031 136.816406 C 900.054688 136.710938 898.886719 136.515625 897.699219 136.546875 C 895.628906 136.648438 893.789062 137.378906 892.082031 138.535156 C 891.886719 138.675781 891.703125 138.875 891.472656 138.992188 C 888.859375 140.445312 886.855469 142.609375 884.929688 144.820312 C 883.820312 146.074219 882.875 147.484375 881.882812 148.839844 C 881.242188 149.730469 880.597656 150.617188 879.957031 151.507812 C 878.730469 153.238281 877.253906 154.734375 875.609375 156.039062 C 873.472656 157.746094 871.042969 158.863281 868.289062 159.082031 C 867.621094 159.132812 866.933594 159.21875 866.285156 159.199219 C 865.375 159.171875 864.4375 159.152344 863.527344 158.960938 C 861.566406 158.550781 859.640625 158 857.695312 157.355469 C 853.871094 156.085938 850.144531 154.535156 846.460938 152.878906 C 843.746094 151.65625 840.878906 151.085938 837.910156 151.058594 C 836.480469 151.015625 835.070312 151.035156 833.683594 151.46875 C 832.960938 151.695312 832.207031 151.796875 831.464844 151.925781 C 829.546875 152.285156 827.777344 153.03125 826.023438 153.839844 C 824.414062 154.585938 823.011719 155.675781 821.734375 156.898438 C 820.691406 157.875 819.6875 158.875 818.648438 159.851562 C 817.558594 160.90625 816.507812 161.980469 815.65625 163.242188 C 814.625 164.703125 813.304688 165.871094 811.855469 166.90625 C 810.019531 168.21875 807.914062 168.75 805.699219 168.785156 C 804.765625 168.792969 803.84375 168.703125 802.945312 168.578125 C 800.191406 168.210938 797.488281 167.636719 794.851562 166.789062 C 792.695312 166.0625 790.441406 165.777344 788.183594 165.625 C 785.277344 165.453125 782.519531 166.09375 779.855469 167.167969 C 777.664062 168.042969 775.523438 169 773.382812 169.960938 C 772.765625 170.226562 772.207031 170.609375 771.691406 171.046875 C 769.667969 172.695312 767.6875 174.367188 765.878906 176.261719 C 763.679688 178.5625 761.28125 180.683594 758.957031 182.855469 C 757.539062 184.175781 755.988281 185.328125 754.386719 186.394531 C 752.789062 187.464844 750.917969 188.039062 749.089844 188.667969 C 745.5 189.914062 741.820312 189.75 738.15625 189.0625 C 737.253906 188.90625 736.351562 188.617188 735.546875 188.175781 C 733.058594 186.839844 730.296875 186.441406 727.558594 186.003906 C 726.554688 185.835938 725.574219 185.761719 724.5625 185.5625 C 722.214844 185.136719 719.875 185.199219 717.558594 185.351562 C 715.875 185.460938 714.253906 185.851562 712.789062 186.824219 C 712.175781 187.25 711.464844 187.539062 710.800781 187.878906 C 708.914062 188.816406 707.164062 189.949219 705.519531 191.253906 C 705.050781 191.617188 704.621094 192.003906 704.117188 192.34375 C 702.550781 193.433594 701.496094 194.933594 700.863281 196.730469 C 700.601562 197.4375 700.367188 198.140625 700.105469 198.847656 C 700.085938 198.917969 699.941406 198.980469 699.902344 198.957031 C 699.789062 198.882812 699.601562 198.761719 699.613281 198.664062 C 699.707031 197.050781 700.207031 195.511719 700.507812 193.949219 C 700.960938 193.234375 701.347656 192.496094 701.882812 191.859375 C 702.5625 190.996094 703.253906 190.191406 703.738281 189.175781 C 704.03125 188.59375 704.570312 188.117188 705.011719 187.628906 C 706.472656 186.070312 708.128906 184.828125 710.230469 184.269531 C 710.714844 184.128906 711.140625 183.875 711.511719 183.5 C 712.5 182.4375 713.707031 181.910156 714.992188 181.757812 Z M 714.992188 181.757812 " fill-opacity="1" fill-rule="nonzero"/></g></g></g><g clip-path="url(#id7)"><g clip-path="url(#id8)"><g clip-path="url(#id9)"><path fill="#f39200" d="M 714.628906 171.925781 C 716.492188 171.746094 718.253906 171.550781 720.019531 171.679688 C 724.121094 172.011719 728.203125 172.410156 732.222656 173.246094 C 734.183594 173.660156 736.183594 173.96875 738.117188 174.546875 C 739.875 175.070312 741.582031 174.921875 743.347656 174.597656 C 744.582031 174.359375 745.757812 173.839844 747.023438 173.886719 C 747.351562 173.910156 747.667969 173.742188 747.992188 173.605469 C 749.214844 173.011719 750.316406 172.3125 751.296875 171.351562 C 752.300781 170.351562 753.378906 169.398438 754.382812 168.394531 C 754.757812 168.054688 755.136719 167.710938 755.359375 167.269531 C 756.5625 165.121094 758.234375 163.355469 759.789062 161.484375 C 760.222656 160.96875 760.738281 160.53125 761.304688 160.175781 C 762.808594 159.261719 764.308594 158.3125 765.871094 157.511719 C 767.722656 156.554688 769.660156 155.703125 771.578125 154.890625 C 773.289062 154.1875 775.109375 153.820312 776.972656 153.800781 C 777.648438 153.78125 778.300781 153.832031 778.976562 153.8125 C 779.96875 153.789062 780.988281 153.890625 781.972656 153.671875 C 782.464844 153.5625 782.976562 153.546875 783.476562 153.632812 C 785.050781 153.902344 786.625 154.171875 788.160156 154.550781 C 790.101562 155.03125 792.023438 155.714844 793.972656 156.226562 C 795.511719 156.632812 797.058594 157.074219 798.519531 157.695312 C 799.410156 158.082031 800.28125 158.085938 801.210938 158.074219 C 803.75 158.035156 805.957031 157.09375 808.082031 155.910156 C 808.824219 155.488281 809.441406 154.929688 809.980469 154.289062 C 811.136719 152.964844 812.285156 151.605469 813.414062 150.285156 C 813.949219 149.644531 814.441406 148.953125 815.015625 148.339844 C 815.585938 147.726562 816.207031 147.167969 816.824219 146.609375 C 817.300781 146.144531 817.863281 145.761719 818.300781 145.273438 C 819.386719 144.0625 820.625 143.105469 821.984375 142.253906 C 822.46875 141.953125 823.015625 141.667969 823.492188 141.335938 C 824.75 140.472656 826.089844 139.820312 827.628906 139.644531 C 828.257812 139.570312 828.890625 139.238281 829.503906 138.941406 C 830.261719 138.578125 831.078125 138.332031 831.890625 138.21875 C 832.886719 138.0625 833.875 137.878906 834.886719 137.785156 C 836.839844 137.582031 838.746094 138.039062 840.554688 138.648438 C 842.613281 139.363281 844.632812 140.1875 846.574219 141.253906 C 848.261719 142.179688 850.113281 142.84375 851.710938 143.953125 C 853.21875 144.5 854.585938 145.304688 856.050781 145.957031 C 857.933594 146.742188 859.886719 147.125 861.9375 146.640625 C 862.828125 146.445312 863.765625 146.300781 864.675781 146.199219 C 866.621094 145.964844 868.402344 145.28125 870.015625 144.113281 C 871.097656 143.320312 872.128906 142.445312 873.003906 141.4375 C 874.359375 139.839844 875.632812 138.164062 877.1875 136.746094 C 877.945312 135.507812 879.03125 134.585938 879.871094 133.425781 C 880.59375 132.457031 881.414062 131.65625 882.3125 130.90625 C 883.5 129.863281 884.71875 128.816406 886.128906 128.050781 C 886.554688 127.792969 887.019531 127.5625 887.503906 127.421875 C 888.46875 127.113281 889.429688 126.804688 890.398438 126.65625 C 891.210938 126.542969 892.078125 126.542969 892.878906 126.660156 C 894.539062 126.878906 896.179688 127.167969 897.824219 127.457031 C 898.058594 127.5 898.285156 127.648438 898.503906 127.761719 C 898.902344 127.964844 899.253906 128.539062 899.109375 128.765625 C 898.917969 129.066406 898.585938 129.171875 898.234375 129.183594 C 897.984375 129.207031 897.722656 129.199219 897.496094 129.183594 C 895.46875 128.917969 893.492188 129.15625 891.507812 129.496094 C 890.417969 129.671875 889.40625 130.058594 888.460938 130.589844 C 887.289062 131.273438 886.15625 131.976562 885.066406 132.738281 C 884.257812 133.304688 883.46875 133.964844 882.792969 134.699219 C 880.746094 136.808594 878.773438 138.964844 876.613281 141 C 875.570312 141.976562 874.609375 143.035156 873.605469 144.035156 C 872.996094 144.625 872.332031 145.128906 871.679688 145.664062 C 870.554688 146.558594 869.296875 147.128906 867.910156 147.566406 C 865.984375 148.183594 863.960938 148.371094 862.039062 148.859375 C 859.902344 149.394531 857.84375 148.972656 855.90625 148.066406 C 851.710938 146.132812 847.472656 144.304688 843.171875 142.621094 C 842.074219 142.179688 840.945312 141.875 839.789062 141.609375 C 837.027344 140.921875 834.285156 141.199219 831.574219 141.765625 C 831.238281 141.839844 830.945312 141.96875 830.605469 142.042969 C 827.230469 142.65625 824.410156 144.480469 821.65625 146.453125 C 820.292969 147.4375 819.019531 148.527344 817.703125 149.566406 C 816.765625 150.292969 815.957031 151.152344 815.183594 152.039062 C 813.695312 153.761719 812.164062 155.433594 810.667969 157.128906 C 810.519531 157.324219 810.292969 157.46875 810.089844 157.578125 C 807.085938 159.445312 803.855469 160.417969 800.328125 160.347656 C 797.546875 160.3125 794.835938 159.707031 792.160156 158.964844 C 790.128906 158.371094 788.136719 157.804688 786.058594 157.449219 C 785.15625 157.292969 784.25 157.132812 783.308594 157.246094 C 782.488281 157.328125 781.640625 157.285156 780.800781 157.277344 C 778.335938 157.203125 775.976562 157.753906 773.695312 158.648438 C 771.109375 159.640625 768.632812 160.835938 766.179688 162.125 C 764.296875 163.089844 762.59375 164.28125 761.261719 165.972656 C 760.242188 167.203125 759.144531 168.355469 758.011719 169.511719 C 756.773438 170.761719 755.453125 171.929688 754.167969 173.121094 C 753.738281 173.507812 753.269531 173.871094 752.839844 174.261719 C 750.386719 176.425781 747.511719 177.707031 744.328125 178.3125 C 742.40625 178.671875 740.523438 178.597656 738.597656 178.050781 C 733.246094 176.566406 727.769531 175.691406 722.253906 175.378906 C 721.339844 175.320312 720.421875 175.394531 719.480469 175.375 C 717.773438 175.359375 716.210938 175.738281 714.621094 176.414062 C 712.378906 177.363281 710.191406 178.394531 708.023438 179.523438 C 704.671875 181.269531 701.464844 183.242188 698.789062 186.011719 C 697.660156 187.167969 696.671875 188.394531 695.886719 189.800781 C 695.398438 190.65625 695 191.621094 694.25 192.308594 C 694.195312 192.351562 694.078125 192.410156 694.003906 192.363281 C 693.933594 192.34375 693.882812 192.257812 693.832031 192.171875 C 693.769531 192.023438 693.664062 191.851562 693.699219 191.714844 C 693.90625 190.464844 694.148438 189.210938 694.292969 187.976562 C 694.417969 186.941406 694.832031 186.039062 695.417969 185.195312 C 696.355469 183.882812 697.378906 182.683594 698.210938 181.328125 C 698.589844 180.726562 699.214844 180.199219 699.832031 179.769531 C 702.320312 178.050781 704.777344 176.339844 707.515625 175.023438 C 709.410156 174.117188 711.269531 173.1875 713.234375 172.460938 C 713.789062 172.210938 714.269531 172.039062 714.628906 171.925781 Z M 714.628906 171.925781 " fill-opacity="1" fill-rule="nonzero"/></g></g></g><g clip-path="url(#id10)"><g clip-path="url(#id11)"><g clip-path="url(#id12)"><path fill="#f39200" d="M 697.003906 166.941406 C 697.71875 166.6875 698.425781 166.53125 699.203125 166.683594 C 700.046875 166.855469 700.859375 166.609375 701.675781 166.367188 C 702.890625 166.035156 704.085938 165.609375 705.265625 165.25 C 705.988281 165.027344 706.710938 164.800781 707.464844 164.699219 C 710.128906 164.375 712.773438 164.082031 715.445312 163.785156 C 716.105469 163.707031 716.777344 163.6875 717.445312 163.800781 C 718.851562 164.042969 720.273438 164.054688 721.71875 164.027344 C 725.171875 163.917969 728.570312 164.566406 731.9375 165.21875 C 732.339844 165.292969 732.75 165.398438 733.140625 165.574219 C 734.679688 166.273438 736.304688 166.628906 737.972656 166.878906 C 738.96875 167.015625 739.960938 167.285156 740.929688 167.429688 C 741.332031 167.503906 741.78125 167.5 742.175781 167.382812 C 743.292969 167.039062 744.414062 166.726562 745.402344 166.085938 C 747.507812 164.679688 749.480469 163.109375 750.800781 160.902344 C 751.414062 159.886719 752.183594 159.003906 753.03125 158.167969 C 753.453125 157.75 753.914062 157.355469 754.265625 156.886719 C 755.9375 154.535156 758.101562 152.664062 760.070312 150.636719 C 761.835938 148.851562 763.847656 147.300781 766.164062 146.273438 C 767.339844 145.753906 768.523438 145.425781 769.753906 145.15625 C 772.066406 144.679688 774.398438 144.457031 776.746094 144.425781 C 778.351562 144.398438 779.898438 144.707031 781.421875 145.183594 C 782.460938 145.507812 783.5 145.832031 784.535156 146.152344 C 784.953125 146.289062 785.332031 146.402344 785.722656 146.574219 C 788.738281 148.121094 791.984375 148.964844 795.089844 150.328125 C 795.769531 150.632812 796.519531 150.824219 797.222656 151.089844 C 798.167969 151.433594 799.167969 151.574219 800.171875 151.609375 C 801.285156 151.691406 802.292969 151.433594 803.3125 150.949219 C 805.0625 150.109375 806.5625 148.871094 808.164062 147.800781 C 808.300781 147.707031 808.441406 147.609375 808.542969 147.492188 C 809.738281 146.1875 810.972656 144.910156 812.136719 143.613281 C 812.523438 143.171875 812.792969 142.65625 813.097656 142.132812 C 813.664062 141.195312 814.3125 140.339844 815.070312 139.523438 C 816.269531 138.25 817.382812 136.867188 818.457031 135.460938 C 819.113281 134.632812 819.871094 133.980469 820.785156 133.582031 C 823.0625 132.527344 825.363281 131.566406 827.894531 131.203125 C 831.113281 130.753906 834.242188 130.910156 837.332031 131.917969 C 839.414062 132.597656 841.515625 133.207031 843.441406 134.210938 C 843.585938 134.277344 843.738281 134.371094 843.902344 134.402344 C 846.097656 134.988281 848.113281 136.105469 850.265625 136.800781 C 851.519531 137.238281 852.65625 137.996094 853.957031 138.359375 C 854.609375 138.539062 855.257812 138.691406 855.882812 138.910156 C 857.453125 139.441406 859.042969 139.058594 860.621094 139.066406 C 861.570312 138.695312 862.503906 138.390625 863.410156 137.964844 C 864.167969 137.601562 864.875 137.15625 865.695312 136.941406 C 866.148438 136.808594 866.636719 136.539062 867.019531 136.226562 C 868.902344 134.675781 870.753906 133.128906 872.597656 131.554688 C 873.027344 131.167969 873.40625 130.691406 873.828125 130.273438 C 875.152344 128.976562 876.402344 127.628906 877.808594 126.410156 C 878.753906 125.582031 879.839844 124.953125 880.875 124.238281 C 881.628906 123.714844 882.464844 123.269531 883.226562 122.777344 C 884.578125 121.894531 885.964844 121.167969 887.644531 121.1875 C 887.902344 121.195312 888.148438 121.140625 888.394531 121.085938 C 890.867188 120.3125 893.363281 120.671875 895.867188 121.0625 C 897.066406 121.253906 898.003906 121.988281 899.074219 122.46875 C 899.792969 122.796875 900.296875 123.335938 900.753906 123.949219 C 900.84375 124.058594 900.824219 124.261719 900.789062 124.398438 C 900.769531 124.597656 900.621094 124.660156 900.417969 124.609375 C 900.179688 124.5625 899.9375 124.488281 899.695312 124.410156 C 897.769531 123.859375 895.820312 123.347656 893.785156 123.308594 C 891.746094 123.273438 889.761719 123.480469 887.789062 123.882812 C 887.234375 124.003906 886.6875 124.289062 886.167969 124.566406 C 882.785156 126.320312 879.945312 128.796875 877.375 131.605469 C 874.742188 134.425781 871.867188 137.011719 868.640625 139.183594 C 867.179688 140.15625 865.671875 141.074219 864.011719 141.730469 C 863.394531 141.996094 862.742188 142.109375 862.085938 142.1875 C 859.457031 142.539062 856.90625 142.226562 854.433594 141.242188 C 852.492188 140.46875 850.515625 139.703125 848.582031 138.957031 C 845.351562 137.753906 842.144531 136.511719 838.898438 135.375 C 836.597656 134.582031 834.210938 134.132812 831.726562 134.550781 C 829.054688 134.425781 826.625 135.382812 824.199219 136.371094 C 823.050781 136.851562 821.972656 137.511719 820.945312 138.257812 C 818.695312 139.890625 816.75 141.882812 814.832031 143.863281 C 813.828125 145.449219 812.335938 146.558594 811.128906 147.960938 C 809.496094 149.914062 807.347656 151.265625 805.234375 152.640625 C 803.625 153.675781 801.808594 153.914062 799.914062 153.648438 C 798.082031 153.371094 796.292969 152.855469 794.589844 152.160156 C 792.71875 151.402344 790.867188 150.605469 788.933594 150.027344 C 788.449219 149.871094 787.980469 149.652344 787.550781 149.453125 C 785.9375 148.703125 784.230469 148.269531 782.503906 147.902344 C 781.761719 147.742188 781.007812 147.679688 780.265625 147.679688 C 777.0625 147.769531 773.921875 148.136719 770.808594 148.917969 C 768.300781 149.535156 766.160156 150.789062 764.0625 152.226562 C 761.621094 153.867188 759.410156 155.820312 757.398438 157.953125 C 756.25 159.179688 755.058594 160.351562 753.914062 161.578125 C 753.101562 162.441406 752.371094 163.347656 751.558594 164.210938 C 750.128906 165.757812 748.6875 167.246094 746.875 168.394531 C 745.410156 169.335938 743.800781 169.785156 742.085938 169.613281 C 739.34375 169.304688 736.597656 168.96875 734.023438 167.816406 C 733.023438 167.386719 731.953125 167.199219 730.867188 166.949219 C 727.046875 166.136719 723.214844 166.136719 719.355469 166.175781 C 718.933594 166.167969 718.527344 166.226562 718.097656 166.320312 C 715.242188 166.949219 712.28125 167.117188 709.398438 167.492188 C 708.335938 167.628906 707.238281 167.773438 706.15625 167.976562 C 702.996094 168.546875 699.976562 169.46875 697.097656 170.882812 C 694.824219 171.96875 692.582031 173.050781 690.429688 174.402344 C 688.476562 175.613281 686.714844 176.976562 685.230469 178.730469 C 685.082031 178.925781 684.894531 179.097656 684.710938 179.300781 C 684.3125 179.679688 683.394531 179.460938 683.242188 178.910156 C 683.046875 178.171875 682.882812 177.429688 682.789062 176.703125 C 682.707031 176.199219 682.882812 175.675781 683.25 175.300781 C 684.445312 174 685.558594 172.617188 687.058594 171.667969 C 689.261719 170.273438 691.476562 168.90625 693.863281 167.894531 C 694.332031 167.691406 694.761719 167.4375 695.246094 167.296875 C 695.859375 167.160156 696.417969 167.070312 697.003906 166.941406 Z M 697.003906 166.941406 " fill-opacity="1" fill-rule="nonzero"/></g></g></g></svg>