<svg xmlns="http://www.w3.org/2000/svg" xmlns:xlink="http://www.w3.org/1999/xlink" width="1230" zoomAndPan="magnify" viewBox="0 0 922.5 225" height="300" preserveAspectRatio="xMidYMid meet" version="1.0"><defs><g/><clipPath id="id1"><path d="M 732 145 L 915 145 L 915 195 L 732 195 Z M 732 145 " clip-rule="nonzero"/></clipPath><clipPath id="id2"><path d="M 723.773438 183.691406 L 913.46875 141.878906 L 922.507812 182.894531 L 732.8125 224.707031 Z M 723.773438 183.691406 " clip-rule="nonzero"/></clipPath><clipPath id="id3"><path d="M 922.492188 183.257812 L 732.796875 225.070312 L 723.757812 184.054688 L 913.453125 142.242188 Z M 922.492188 183.257812 " clip-rule="nonzero"/></clipPath><clipPath id="id4"><path d="M 742 166 L 918 166 L 918 223 L 742 223 Z M 742 166 " clip-rule="nonzero"/></clipPath><clipPath id="id5"><path d="M 723.773438 183.691406 L 913.46875 141.878906 L 922.507812 182.894531 L 732.8125 224.707031 Z M 723.773438 183.691406 " clip-rule="nonzero"/></clipPath><clipPath id="id6"><path d="M 922.492188 183.257812 L 732.796875 225.070312 L 723.757812 184.054688 L 913.453125 142.242188 Z M 922.492188 183.257812 " clip-rule="nonzero"/></clipPath><clipPath id="id7"><path d="M 737 159 L 915 159 L 915 217 L 737 217 Z M 737 159 " clip-rule="nonzero"/></clipPath><clipPath id="id8"><path d="M 723.773438 183.691406 L 913.46875 141.878906 L 922.507812 182.894531 L 732.8125 224.707031 Z M 723.773438 183.691406 " clip-rule="nonzero"/></clipPath><clipPath id="id9"><path d="M 922.492188 183.257812 L 732.796875 225.070312 L 723.757812 184.054688 L 913.453125 142.242188 Z M 922.492188 183.257812 " clip-rule="nonzero"/></clipPath><clipPath id="id10"><path d="M 728 154 L 917 154 L 917 206 L 728 206 Z M 728 154 " clip-rule="nonzero"/></clipPath><clipPath id="id11"><path d="M 723.773438 183.691406 L 913.46875 141.878906 L 922.507812 182.894531 L 732.8125 224.707031 Z M 723.773438 183.691406 " clip-rule="nonzero"/></clipPath><clipPath id="id12"><path d="M 922.492188 183.257812 L 732.796875 225.070312 L 723.757812 184.054688 L 913.453125 142.242188 Z M 922.492188 183.257812 " clip-rule="nonzero"/></clipPath></defs><g fill="#f39200" fill-opacity="1"><g transform="translate(10.277343, 176.608047)"><g><path d="M 129.648438 -150.253906 L 92.300781 -150.253906 L 92.300781 -91.011719 L 52.375 -91.011719 L 52.375 -150.253906 L 15.027344 -150.253906 L 15.027344 0 L 52.375 0 L 52.375 -63.320312 L 92.300781 -63.320312 L 92.300781 0 L 129.648438 0 Z M 129.648438 -150.253906 "/></g></g></g><g fill="#ffffff" fill-opacity="1"><g transform="translate(154.734365, 176.608047)"><g><path d="M 60.316406 1.933594 C 91.65625 1.933594 112.476562 -22.753906 112.476562 -54.304688 C 112.476562 -86.074219 91.65625 -110.757812 60.316406 -110.757812 C 29.40625 -110.757812 8.585938 -86.074219 8.585938 -54.734375 C 8.585938 -19.320312 28.546875 1.933594 60.316406 1.933594 Z M 60.316406 -23.824219 C 50.65625 -23.824219 44.21875 -34.773438 44.21875 -55.164062 C 44.21875 -70.835938 50.65625 -85.429688 60.316406 -85.429688 C 70.191406 -85.429688 76.628906 -71.050781 76.628906 -54.949219 C 76.628906 -38.421875 70.191406 -23.824219 60.316406 -23.824219 Z M 60.316406 -23.824219 "/></g></g></g><g fill="#ffffff" fill-opacity="1"><g transform="translate(275.582101, 176.608047)"><g><path d="M 56.023438 -82.210938 L 81.78125 -82.210938 L 81.78125 -108.183594 L 56.023438 -108.183594 L 56.023438 -136.515625 L 20.390625 -136.515625 L 20.390625 -108.183594 L 2.359375 -108.183594 L 2.359375 -82.210938 L 20.390625 -82.210938 L 20.390625 -35.632812 C 20.390625 -14.167969 35.632812 0 58.8125 0 L 82.210938 0 L 82.210938 -25.972656 L 66.113281 -25.972656 C 60.101562 -25.972656 56.023438 -30.480469 56.023438 -37.347656 Z M 56.023438 -82.210938 "/></g></g></g><g fill="#f39200" fill-opacity="1"><g transform="translate(363.152325, 176.608047)"><g><path d="M 37.347656 0 L 85.644531 0 L 98.308594 -112.691406 L 100.457031 -112.691406 L 113.335938 0 L 161.203125 0 L 196.621094 -151.542969 L 157.339844 -151.542969 L 135.660156 -26.617188 L 133.511719 -26.617188 L 118.488281 -151.542969 L 79.851562 -151.542969 L 65.253906 -26.617188 L 63.105469 -26.617188 L 41 -151.542969 L 1.71875 -151.542969 Z M 37.347656 0 "/></g></g></g><g fill="#ffffff" fill-opacity="1"><g transform="translate(561.70309, 176.608047)"><g><path d="M 117.199219 -25.972656 L 113.980469 -25.972656 C 112.046875 -25.972656 110.757812 -27.476562 110.757812 -30.050781 L 110.757812 -60.960938 C 110.757812 -91.011719 90.367188 -110.757812 59.457031 -110.757812 C 30.050781 -110.757812 9.015625 -93.585938 9.015625 -70.835938 L 42.285156 -70.835938 C 42.285156 -77.488281 48.511719 -84.785156 59.457031 -84.785156 C 70.191406 -84.785156 77.488281 -78.777344 77.488281 -69.761719 C 77.488281 -67.398438 73.625 -65.253906 67.398438 -63.964844 C 64.179688 -63.320312 60.101562 -62.890625 37.777344 -60.746094 C 19.53125 -58.597656 8.371094 -47.007812 8.371094 -31.125 C 8.371094 -11.589844 22.109375 1.503906 42.929688 1.503906 C 60.316406 1.503906 76.414062 -9.875 82.855469 -27.046875 L 84.359375 -27.046875 L 83.929688 -23.398438 C 81.996094 -9.445312 90.367188 0 105.179688 0 L 117.199219 0 Z M 55.378906 -23.824219 C 47.4375 -23.824219 42.285156 -28.121094 42.285156 -34.773438 C 42.285156 -48.941406 68.902344 -43.789062 76.84375 -51.515625 L 77.488281 -51.515625 L 77.488281 -42.285156 C 76.199219 -31.125 67.398438 -23.824219 55.378906 -23.824219 Z M 55.378906 -23.824219 "/></g></g></g><g fill="#ffffff" fill-opacity="1"><g transform="translate(682.550826, 176.608047)"><g><path d="M 30.480469 0 L 79.207031 0 L 108.613281 -108.398438 L 72.121094 -108.398438 L 56.023438 -27.476562 L 53.449219 -27.476562 L 37.5625 -108.398438 L 1.074219 -108.398438 Z M 30.480469 0 "/></g></g></g><g fill="#ffffff" fill-opacity="1"><g transform="translate(792.022106, 176.608047)"><g><path d="M 108.398438 -32.414062 C 95.089844 -27.90625 79.636719 -26.1875 68.257812 -27.046875 C 52.804688 -27.90625 42.929688 -34.988281 41.855469 -47.867188 L 41.855469 -49.371094 L 111.617188 -49.371094 L 111.617188 -53.878906 C 110.117188 -92.945312 95.949219 -110.757812 60.101562 -110.757812 C 29.191406 -110.757812 8.585938 -88.652344 8.585938 -54.519531 C 8.585938 -11.160156 37.777344 1.933594 66.113281 1.933594 C 83.929688 1.71875 101.957031 -3.433594 108.828125 -7.941406 Z M 42.070312 -62.890625 C 42.714844 -75.769531 50.441406 -84.144531 60.960938 -84.144531 C 71.90625 -84.144531 78.5625 -76.414062 78.5625 -63.105469 Z M 42.070312 -62.890625 "/></g></g></g><g clip-path="url(#id1)"><g clip-path="url(#id2)"><g clip-path="url(#id3)"><path fill="#f39200" d="M 743.707031 184.5625 C 743.707031 184.5625 743.925781 184.542969 744.144531 184.523438 C 747.15625 184.1875 750.195312 183.960938 753.21875 184.175781 C 753.726562 184.203125 754.230469 184.230469 754.730469 184.230469 C 756.761719 184.222656 758.761719 184.472656 760.746094 184.886719 C 762.519531 185.242188 764.273438 185.628906 766.027344 186.011719 C 766.585938 186.136719 767.167969 186.257812 767.671875 186.53125 C 768.359375 186.878906 769.074219 186.96875 769.78125 186.894531 C 772.457031 186.664062 775.085938 186.222656 777.570312 185.125 C 778.632812 184.640625 779.621094 184.089844 780.640625 183.535156 C 781.457031 183.082031 782.199219 182.53125 782.738281 181.695312 C 783.007812 181.277344 783.402344 180.914062 783.777344 180.613281 C 785.691406 178.949219 787.433594 177.132812 789.066406 175.199219 C 790.035156 174.050781 791.140625 173.007812 792.253906 171.988281 C 793.59375 170.757812 795.261719 170.003906 796.824219 169.132812 C 797.988281 168.492188 799.21875 168.136719 800.492188 167.855469 C 800.996094 167.746094 801.484375 167.695312 802.007812 167.660156 C 803.519531 167.578125 805.039062 167.542969 806.550781 167.460938 C 807.296875 167.433594 807.980469 167.503906 808.660156 167.820312 C 809 167.96875 809.332031 168.085938 809.683594 168.175781 C 811.191406 168.449219 812.648438 168.871094 814.019531 169.535156 C 814.269531 169.671875 814.558594 169.71875 814.855469 169.792969 C 816.867188 170.339844 818.878906 170.890625 820.894531 171.464844 C 821.933594 171.761719 822.980469 172.082031 823.929688 172.617188 C 824.820312 173.109375 825.8125 173.332031 826.816406 173.46875 C 828.304688 173.664062 829.722656 173.40625 831.011719 172.683594 C 831.996094 172.105469 832.96875 171.480469 833.824219 170.683594 C 834.351562 170.179688 834.824219 169.664062 835.242188 169.046875 C 836.207031 167.621094 837.296875 166.25 837.914062 164.628906 C 837.976562 164.417969 838.101562 164.226562 838.238281 164.085938 C 839.699219 162.386719 840.960938 160.535156 842.957031 159.378906 C 843.28125 159.199219 843.53125 158.949219 843.808594 158.695312 C 844.417969 158.175781 845.121094 157.828125 845.894531 157.546875 C 846.769531 157.242188 847.671875 156.90625 848.554688 156.628906 C 848.96875 156.484375 849.386719 156.363281 849.816406 156.296875 C 851.3125 156.023438 852.800781 155.695312 854.308594 155.71875 C 856.261719 155.757812 858.199219 155.71875 860.144531 156.089844 C 861.925781 156.46875 863.632812 157.027344 865.199219 157.953125 C 866.890625 158.929688 868.652344 159.726562 870.363281 160.671875 C 871.375 161.222656 872.363281 161.804688 873.339844 162.441406 C 875.191406 163.660156 877.25 164.285156 879.507812 163.8125 C 880.226562 163.65625 880.921875 163.527344 881.648438 163.421875 C 883.105469 163.214844 884.417969 162.621094 885.730469 162 C 886.183594 161.789062 886.613281 161.472656 886.921875 161.101562 C 887.808594 160.082031 888.859375 159.160156 889.378906 157.859375 C 889.449219 157.679688 889.601562 157.480469 889.738281 157.339844 C 890.699219 156.273438 891.722656 155.25 892.652344 154.160156 C 893.363281 153.34375 894.25 152.707031 894.820312 151.753906 C 896.003906 150.691406 897.125 149.589844 898.492188 148.738281 C 899.425781 148.175781 900.332031 147.617188 901.230469 147.03125 C 902.765625 146.03125 904.480469 145.488281 906.3125 145.222656 C 906.664062 145.171875 907.046875 145.144531 907.378906 145.265625 C 908.863281 145.679688 910.367188 145.707031 911.886719 145.898438 C 913.113281 146.039062 913.972656 146.789062 914.585938 147.808594 C 914.636719 147.910156 914.597656 148.109375 914.535156 148.207031 C 914.472656 148.304688 914.304688 148.425781 914.195312 148.421875 C 913.996094 148.410156 913.800781 148.285156 913.59375 148.222656 C 913.175781 148.09375 912.765625 147.878906 912.367188 147.832031 C 910.921875 147.707031 909.480469 147.613281 908.050781 147.816406 C 905.347656 148.164062 902.90625 149.199219 900.652344 150.714844 C 900.167969 151.042969 899.679688 151.34375 899.226562 151.691406 C 898.21875 152.410156 897.3125 153.21875 896.519531 154.164062 C 894.160156 156.972656 891.535156 159.5625 888.90625 162.15625 C 887.488281 163.542969 885.855469 164.59375 884.078125 165.371094 C 883.625 165.578125 883.121094 165.691406 882.617188 165.800781 C 881.980469 165.941406 881.320312 165.976562 880.695312 166.171875 C 878.625 166.738281 876.703125 166.222656 874.78125 165.460938 C 874.386719 165.300781 873.988281 165.140625 873.601562 164.894531 C 871.273438 163.421875 868.722656 162.441406 866.253906 161.21875 C 865.5 161.195312 864.976562 160.59375 864.332031 160.320312 C 862.722656 159.710938 861.039062 159.253906 859.289062 159.144531 C 857.933594 159.054688 856.550781 159.085938 855.175781 159.03125 C 853.117188 158.90625 851.144531 159.421875 849.222656 160.039062 C 845.824219 161.148438 843.042969 163.164062 840.699219 165.777344 C 839.824219 166.742188 839.121094 167.835938 838.351562 168.886719 C 838.136719 169.183594 837.925781 169.476562 837.738281 169.765625 C 836.378906 171.800781 834.460938 173.191406 832.34375 174.320312 C 830.976562 175.0625 829.507812 175.328125 827.945312 175.179688 C 826.492188 175.027344 825.070312 174.761719 823.765625 174.140625 C 822.921875 173.71875 822.027344 173.449219 821.097656 173.269531 C 820.457031 173.132812 819.835938 172.96875 819.210938 172.773438 C 818.105469 172.4375 817.007812 172.128906 815.820312 172.03125 C 815.3125 172.007812 814.796875 171.929688 814.335938 171.726562 C 812.773438 171.078125 811.105469 170.949219 809.484375 170.671875 C 808.703125 170.542969 807.90625 170.578125 807.109375 170.617188 C 806.085938 170.648438 805.082031 170.761719 804.070312 170.84375 C 802.332031 171.035156 800.675781 171.59375 799.175781 172.476562 C 797.546875 173.414062 795.960938 174.425781 794.464844 175.582031 C 793.007812 176.675781 791.6875 177.875 790.484375 179.242188 C 789.359375 180.566406 788.046875 181.683594 786.746094 182.851562 C 785.886719 183.621094 784.996094 184.367188 784.136719 185.136719 C 782.066406 186.972656 779.738281 188.394531 777.027344 189.101562 C 776.53125 189.238281 776.0625 189.398438 775.566406 189.535156 C 773.035156 190.285156 770.457031 190.46875 767.871094 189.824219 C 765.84375 189.335938 763.765625 188.992188 761.722656 188.5625 C 759.535156 188.105469 757.292969 188.019531 755.042969 187.910156 C 751.78125 187.746094 748.546875 187.964844 745.316406 188.207031 C 744.082031 188.285156 742.917969 188.679688 741.773438 189.152344 C 741.160156 189.398438 740.578125 189.664062 740.011719 190.007812 C 737.933594 191.296875 735.636719 192.242188 733.65625 193.726562 C 733.441406 193.882812 733.128906 193.980469 732.863281 194.039062 C 732.785156 194.058594 732.617188 193.929688 732.535156 193.808594 C 732.453125 193.6875 732.445312 193.523438 732.46875 193.382812 C 732.617188 192.550781 732.761719 191.691406 733 190.867188 C 733.226562 190.015625 733.707031 189.277344 734.464844 188.808594 C 735.890625 187.96875 737.351562 187.148438 738.792969 186.363281 C 739.289062 186.089844 739.855469 185.882812 740.398438 185.707031 C 741.230469 185.441406 742.097656 185.332031 742.875 184.941406 C 743.058594 184.652344 743.285156 184.65625 743.707031 184.5625 Z M 743.707031 184.5625 " fill-opacity="1" fill-rule="nonzero"/></g></g></g><g clip-path="url(#id4)"><g clip-path="url(#id5)"><g clip-path="url(#id6)"><path fill="#f39200" d="M 755.851562 207.359375 C 757.078125 207.117188 758.226562 207.140625 759.386719 207.105469 C 762.207031 207.035156 764.996094 207.332031 767.78125 207.847656 C 769.144531 208.097656 770.46875 208.441406 771.695312 209.078125 C 773.511719 210.003906 775.433594 210.515625 777.480469 210.589844 C 778.84375 210.976562 780.195312 210.789062 781.578125 210.625 C 783.738281 210.339844 785.777344 209.613281 787.78125 208.734375 C 788.105469 208.578125 788.390625 208.351562 788.679688 208.148438 C 789.328125 207.675781 789.941406 207.179688 790.585938 206.707031 C 791.1875 206.273438 791.695312 205.800781 792.152344 205.230469 C 792.503906 204.796875 792.941406 204.398438 793.355469 204.003906 C 794.257812 203.167969 795.160156 202.335938 795.816406 201.28125 C 795.898438 201.152344 795.980469 201.023438 796.078125 200.949219 C 797.078125 200.316406 797.660156 199.304688 798.484375 198.488281 C 799.257812 197.710938 800.125 197.105469 800.96875 196.398438 C 801.34375 196.066406 801.707031 195.710938 802.082031 195.378906 C 802.820312 194.691406 803.601562 194.078125 804.6875 193.949219 C 805.414062 193.847656 806.050781 193.457031 806.664062 193.074219 C 809.300781 191.417969 812.179688 190.589844 815.246094 190.246094 C 815.953125 190.171875 816.683594 190.203125 817.40625 190.210938 C 819.585938 190.253906 821.703125 190.640625 823.800781 191.199219 C 826.230469 191.875 828.703125 192.378906 831.148438 193 C 832.148438 193.246094 833.136719 193.304688 834.164062 193.296875 C 835.046875 193.269531 835.875 193.113281 836.683594 192.742188 C 837.011719 192.589844 837.34375 192.460938 837.675781 192.332031 C 838.972656 191.769531 840.042969 190.953125 840.882812 189.832031 C 841.183594 189.4375 841.480469 189.011719 841.78125 188.613281 C 842.167969 188.089844 842.621094 187.628906 843.183594 187.285156 C 844.523438 186.410156 845.667969 185.304688 846.789062 184.203125 C 847.984375 183.058594 849.285156 182.027344 850.550781 180.949219 C 851.792969 180.398438 852.964844 179.671875 854.351562 179.394531 C 855.703125 179.09375 857.03125 178.800781 858.378906 178.476562 C 860.226562 178.042969 862.113281 178.148438 863.964844 178.460938 C 865.523438 178.722656 867.078125 179.097656 868.519531 179.828125 C 869.273438 180.210938 870.128906 180.4375 870.945312 180.726562 C 871.484375 180.910156 872.050781 181.089844 872.574219 181.304688 C 875.09375 182.402344 877.714844 183.175781 880.328125 184.0625 C 880.8125 184.230469 881.308594 184.339844 881.785156 184.484375 C 883.632812 185.042969 885.492188 185.019531 887.355469 184.523438 C 888.332031 184.28125 889.320312 184.09375 890.230469 183.558594 C 890.84375 183.175781 891.453125 182.792969 891.980469 182.292969 C 893.003906 181.378906 893.921875 180.375 895.054688 179.574219 C 895.390625 179.335938 895.671875 178.96875 895.933594 178.636719 C 896.519531 177.902344 897.082031 177.171875 897.675781 176.460938 C 897.898438 176.191406 898.179688 175.964844 898.46875 175.761719 C 898.875 175.453125 899.289062 175.195312 899.726562 174.90625 C 900.984375 174.050781 902.140625 173.105469 903.128906 171.921875 C 903.4375 171.550781 903.867188 171.234375 904.273438 170.925781 C 905.453125 170.085938 906.636719 169.273438 907.84375 168.457031 C 908.882812 167.730469 910.097656 167.4375 911.296875 167.199219 C 912.652344 166.929688 914.019531 166.929688 915.40625 167.039062 C 915.746094 167.074219 916.132812 167.183594 916.441406 167.332031 C 916.664062 167.449219 916.839844 167.742188 916.996094 167.957031 C 917.125 168.148438 916.839844 168.625 916.613281 168.621094 C 915.621094 168.535156 914.613281 168.371094 913.589844 168.402344 C 911.804688 168.496094 910.21875 169.121094 908.738281 170.105469 C 908.570312 170.226562 908.414062 170.398438 908.210938 170.5 C 905.953125 171.742188 904.21875 173.585938 902.550781 175.46875 C 901.589844 176.535156 900.769531 177.734375 899.910156 178.890625 C 899.355469 179.648438 898.796875 180.402344 898.242188 181.160156 C 897.175781 182.636719 895.898438 183.910156 894.476562 185.023438 C 892.625 186.476562 890.527344 187.4375 888.152344 187.628906 C 887.578125 187.671875 886.984375 187.75 886.421875 187.734375 C 885.640625 187.714844 884.828125 187.699219 884.042969 187.542969 C 882.355469 187.199219 880.695312 186.738281 879.019531 186.195312 C 875.726562 185.128906 872.515625 183.824219 869.34375 182.429688 C 867.003906 181.402344 864.535156 180.925781 861.972656 180.910156 C 860.742188 180.878906 859.523438 180.898438 858.324219 181.273438 C 857.699219 181.464844 857.050781 181.554688 856.410156 181.667969 C 854.753906 181.976562 853.226562 182.617188 851.710938 183.3125 C 850.320312 183.949219 849.105469 184.878906 848 185.921875 C 847.101562 186.753906 846.230469 187.605469 845.332031 188.4375 C 844.386719 189.335938 843.476562 190.253906 842.742188 191.324219 C 841.847656 192.570312 840.703125 193.566406 839.453125 194.449219 C 837.863281 195.570312 836.042969 196.027344 834.132812 196.0625 C 833.328125 196.074219 832.535156 196 831.761719 195.894531 C 829.386719 195.59375 827.054688 195.113281 824.785156 194.402344 C 822.925781 193.789062 820.980469 193.558594 819.035156 193.433594 C 816.53125 193.296875 814.148438 193.851562 811.847656 194.769531 C 809.953125 195.519531 808.105469 196.339844 806.257812 197.160156 C 805.722656 197.390625 805.238281 197.714844 804.792969 198.089844 C 803.042969 199.496094 801.328125 200.921875 799.765625 202.535156 C 797.859375 204.5 795.785156 206.308594 793.769531 208.15625 C 792.546875 209.28125 791.203125 210.265625 789.820312 211.175781 C 788.4375 212.089844 786.820312 212.582031 785.242188 213.125 C 782.140625 214.195312 778.96875 214.066406 775.8125 213.492188 C 775.03125 213.363281 774.253906 213.121094 773.5625 212.75 C 771.421875 211.621094 769.039062 211.292969 766.679688 210.929688 C 765.816406 210.789062 764.96875 210.726562 764.097656 210.5625 C 762.070312 210.207031 760.054688 210.265625 758.054688 210.40625 C 756.601562 210.503906 755.203125 210.839844 753.9375 211.671875 C 753.40625 212.035156 752.792969 212.28125 752.21875 212.574219 C 750.585938 213.375 749.074219 214.339844 747.652344 215.453125 C 747.246094 215.765625 746.875 216.09375 746.4375 216.382812 C 745.085938 217.316406 744.171875 218.59375 743.617188 220.121094 C 743.390625 220.722656 743.1875 221.316406 742.957031 221.921875 C 742.941406 221.976562 742.816406 222.035156 742.785156 222.011719 C 742.6875 221.953125 742.527344 221.851562 742.535156 221.765625 C 742.621094 220.394531 743.058594 219.085938 743.320312 217.761719 C 743.714844 217.148438 744.050781 216.523438 744.515625 215.980469 C 745.101562 215.246094 745.703125 214.558594 746.125 213.695312 C 746.375 213.199219 746.84375 212.792969 747.222656 212.378906 C 748.488281 211.050781 749.925781 209.992188 751.738281 209.507812 C 752.15625 209.390625 752.523438 209.167969 752.84375 208.851562 C 753.703125 207.945312 754.742188 207.496094 755.851562 207.359375 Z M 755.851562 207.359375 " fill-opacity="1" fill-rule="nonzero"/></g></g></g><g clip-path="url(#id7)"><g clip-path="url(#id8)"><g clip-path="url(#id9)"><path fill="#f39200" d="M 755.570312 199.015625 C 757.175781 198.851562 758.695312 198.683594 760.222656 198.789062 C 763.757812 199.058594 767.277344 199.382812 770.742188 200.082031 C 772.429688 200.425781 774.15625 200.679688 775.820312 201.167969 C 777.335938 201.605469 778.808594 201.472656 780.332031 201.195312 C 781.398438 200.984375 782.414062 200.542969 783.507812 200.578125 C 783.789062 200.597656 784.0625 200.453125 784.34375 200.335938 C 785.398438 199.828125 786.351562 199.230469 787.203125 198.410156 C 788.070312 197.558594 789.003906 196.746094 789.871094 195.894531 C 790.199219 195.601562 790.523438 195.308594 790.71875 194.933594 C 791.761719 193.105469 793.210938 191.601562 794.554688 190.007812 C 794.929688 189.566406 795.378906 189.191406 795.867188 188.890625 C 797.167969 188.109375 798.464844 187.300781 799.816406 186.617188 C 801.414062 185.792969 803.089844 185.066406 804.746094 184.371094 C 806.226562 183.769531 807.796875 183.449219 809.402344 183.425781 C 809.984375 183.410156 810.550781 183.449219 811.128906 183.433594 C 811.988281 183.410156 812.867188 183.492188 813.714844 183.304688 C 814.140625 183.210938 814.582031 183.195312 815.015625 183.265625 C 816.371094 183.492188 817.726562 183.714844 819.050781 184.03125 C 820.722656 184.433594 822.378906 185.007812 824.058594 185.433594 C 825.386719 185.777344 826.71875 186.144531 827.972656 186.667969 C 828.742188 186.996094 829.492188 186.996094 830.296875 186.984375 C 832.484375 186.941406 834.394531 186.136719 836.226562 185.125 C 836.871094 184.761719 837.40625 184.285156 837.871094 183.742188 C 838.871094 182.613281 839.871094 181.453125 840.84375 180.328125 C 841.308594 179.785156 841.734375 179.195312 842.234375 178.671875 C 842.730469 178.148438 843.265625 177.671875 843.796875 177.199219 C 844.210938 176.804688 844.695312 176.476562 845.078125 176.0625 C 846.019531 175.027344 847.089844 174.210938 848.265625 173.484375 C 848.679688 173.226562 849.15625 172.984375 849.566406 172.699219 C 850.65625 171.964844 851.8125 171.40625 853.140625 171.25 C 853.683594 171.1875 854.230469 170.898438 854.757812 170.644531 C 855.414062 170.335938 856.117188 170.125 856.820312 170.027344 C 857.679688 169.890625 858.535156 169.730469 859.40625 169.648438 C 861.09375 169.472656 862.734375 169.851562 864.292969 170.363281 C 866.066406 170.964844 867.804688 171.65625 869.476562 172.558594 C 870.929688 173.339844 872.527344 173.898438 873.902344 174.835938 C 875.199219 175.292969 876.375 175.972656 877.636719 176.519531 C 879.257812 177.183594 880.941406 177.503906 882.710938 177.085938 C 883.480469 176.914062 884.289062 176.792969 885.074219 176.703125 C 886.753906 176.496094 888.292969 175.910156 889.6875 174.914062 C 890.625 174.238281 891.515625 173.488281 892.273438 172.632812 C 893.445312 171.273438 894.550781 169.84375 895.898438 168.636719 C 896.554688 167.582031 897.496094 166.796875 898.222656 165.808594 C 898.847656 164.980469 899.558594 164.300781 900.335938 163.660156 C 901.363281 162.773438 902.417969 161.878906 903.636719 161.222656 C 904.007812 161.003906 904.40625 160.804688 904.824219 160.6875 C 905.65625 160.421875 906.488281 160.15625 907.324219 160.027344 C 908.023438 159.925781 908.773438 159.925781 909.464844 160.023438 C 910.894531 160.203125 912.308594 160.441406 913.726562 160.683594 C 913.929688 160.71875 914.121094 160.84375 914.308594 160.9375 C 914.652344 161.113281 914.957031 161.597656 914.832031 161.789062 C 914.664062 162.046875 914.378906 162.136719 914.078125 162.148438 C 913.859375 162.167969 913.632812 162.164062 913.4375 162.152344 C 911.691406 161.929688 909.984375 162.140625 908.269531 162.4375 C 907.332031 162.585938 906.457031 162.917969 905.640625 163.375 C 904.628906 163.957031 903.648438 164.558594 902.707031 165.207031 C 902.007812 165.691406 901.324219 166.253906 900.738281 166.878906 C 898.964844 168.675781 897.257812 170.515625 895.386719 172.25 C 894.484375 173.082031 893.65625 173.984375 892.785156 174.835938 C 892.257812 175.339844 891.683594 175.769531 891.117188 176.222656 C 890.144531 176.988281 889.058594 177.476562 887.859375 177.851562 C 886.199219 178.382812 884.453125 178.546875 882.792969 178.96875 C 880.949219 179.429688 879.175781 179.078125 877.503906 178.316406 C 873.890625 176.683594 870.242188 175.144531 866.535156 173.730469 C 865.59375 173.359375 864.617188 173.105469 863.625 172.882812 C 861.242188 172.304688 858.878906 172.550781 856.539062 173.039062 C 856.246094 173.101562 855.992188 173.214844 855.703125 173.277344 C 852.785156 173.808594 850.347656 175.367188 847.964844 177.050781 C 846.789062 177.890625 845.6875 178.820312 844.546875 179.707031 C 843.738281 180.328125 843.035156 181.058594 842.367188 181.8125 C 841.078125 183.28125 839.75 184.707031 838.457031 186.148438 C 838.328125 186.316406 838.132812 186.441406 837.957031 186.535156 C 835.359375 188.128906 832.570312 188.964844 829.527344 188.917969 C 827.128906 188.894531 824.792969 188.390625 822.488281 187.765625 C 820.738281 187.269531 819.019531 186.792969 817.230469 186.5 C 816.449219 186.367188 815.667969 186.238281 814.855469 186.332031 C 814.148438 186.40625 813.417969 186.375 812.695312 186.367188 C 810.566406 186.3125 808.53125 186.789062 806.558594 187.554688 C 804.328125 188.40625 802.1875 189.429688 800.066406 190.53125 C 798.441406 191.359375 796.96875 192.371094 795.8125 193.8125 C 794.929688 194.859375 793.976562 195.84375 793 196.832031 C 791.925781 197.894531 790.785156 198.890625 789.671875 199.90625 C 789.300781 200.238281 788.894531 200.546875 788.523438 200.875 C 786.398438 202.722656 783.914062 203.820312 781.167969 204.34375 C 779.511719 204.65625 777.886719 204.601562 776.226562 204.140625 C 771.613281 202.894531 766.890625 202.171875 762.136719 201.921875 C 761.347656 201.875 760.554688 201.941406 759.746094 201.925781 C 758.269531 201.921875 756.921875 202.246094 755.546875 202.824219 C 753.613281 203.636719 751.722656 204.523438 749.847656 205.484375 C 746.953125 206.980469 744.179688 208.664062 741.863281 211.023438 C 740.886719 212.011719 740.03125 213.054688 739.347656 214.25 C 738.925781 214.980469 738.578125 215.800781 737.929688 216.382812 C 737.878906 216.421875 737.78125 216.472656 737.714844 216.429688 C 737.65625 216.417969 737.613281 216.34375 737.570312 216.269531 C 737.511719 216.144531 737.425781 216 737.457031 215.882812 C 737.640625 214.820312 737.847656 213.753906 737.980469 212.707031 C 738.089844 211.828125 738.449219 211.058594 738.960938 210.339844 C 739.769531 209.222656 740.65625 208.203125 741.378906 207.050781 C 741.710938 206.535156 742.25 206.085938 742.78125 205.71875 C 744.933594 204.253906 747.058594 202.792969 749.425781 201.664062 C 751.0625 200.890625 752.667969 200.09375 754.363281 199.472656 C 754.847656 199.257812 755.257812 199.109375 755.570312 199.015625 Z M 755.570312 199.015625 " fill-opacity="1" fill-rule="nonzero"/></g></g></g><g clip-path="url(#id10)"><g clip-path="url(#id11)"><g clip-path="url(#id12)"><path fill="#f39200" d="M 740.382812 194.835938 C 741 194.617188 741.609375 194.480469 742.277344 194.609375 C 743.007812 194.753906 743.710938 194.542969 744.414062 194.332031 C 745.464844 194.046875 746.496094 193.679688 747.515625 193.375 C 748.140625 193.179688 748.765625 192.988281 749.410156 192.902344 C 751.714844 192.613281 753.992188 192.359375 756.300781 192.097656 C 756.867188 192.027344 757.449219 192.011719 758.027344 192.105469 C 759.238281 192.304688 760.464844 192.3125 761.710938 192.285156 C 764.691406 192.179688 767.617188 192.71875 770.519531 193.265625 C 770.867188 193.328125 771.21875 193.414062 771.558594 193.5625 C 772.882812 194.152344 774.285156 194.449219 775.722656 194.65625 C 776.582031 194.769531 777.4375 194.996094 778.269531 195.113281 C 778.617188 195.175781 779.003906 195.171875 779.34375 195.070312 C 780.308594 194.773438 781.277344 194.507812 782.132812 193.960938 C 783.953125 192.757812 785.660156 191.417969 786.804688 189.539062 C 787.335938 188.675781 788.003906 187.921875 788.738281 187.210938 C 789.105469 186.855469 789.503906 186.519531 789.804688 186.121094 C 791.253906 184.121094 793.128906 182.519531 794.832031 180.792969 C 796.359375 179.273438 798.101562 177.953125 800.101562 177.070312 C 801.117188 176.625 802.140625 176.34375 803.203125 176.109375 C 805.195312 175.699219 807.210938 175.5 809.234375 175.46875 C 810.621094 175.441406 811.957031 175.695312 813.265625 176.097656 C 814.160156 176.367188 815.054688 176.640625 815.949219 176.910156 C 816.308594 177.027344 816.636719 177.117188 816.972656 177.265625 C 819.570312 178.566406 822.367188 179.273438 825.039062 180.421875 C 825.625 180.679688 826.273438 180.839844 826.878906 181.066406 C 827.691406 181.355469 828.550781 181.46875 829.421875 181.496094 C 830.378906 181.5625 831.25 181.339844 832.132812 180.925781 C 833.644531 180.207031 834.9375 179.148438 836.324219 178.238281 C 836.445312 178.15625 836.566406 178.074219 836.65625 177.972656 C 837.6875 176.863281 838.757812 175.773438 839.765625 174.667969 C 840.097656 174.292969 840.335938 173.851562 840.597656 173.410156 C 841.089844 172.609375 841.652344 171.878906 842.308594 171.183594 C 843.347656 170.101562 844.3125 168.925781 845.242188 167.726562 C 845.8125 167.023438 846.46875 166.464844 847.253906 166.125 C 849.226562 165.222656 851.210938 164.398438 853.394531 164.082031 C 856.175781 163.691406 858.871094 163.8125 861.535156 164.660156 C 863.328125 165.230469 865.136719 165.738281 866.796875 166.585938 C 866.921875 166.640625 867.050781 166.722656 867.195312 166.746094 C 869.082031 167.242188 870.820312 168.179688 872.675781 168.765625 C 873.757812 169.132812 874.730469 169.773438 875.855469 170.078125 C 876.417969 170.226562 876.972656 170.355469 877.515625 170.539062 C 878.863281 170.984375 880.238281 170.65625 881.601562 170.65625 C 882.421875 170.339844 883.226562 170.078125 884.007812 169.714844 C 884.664062 169.402344 885.273438 169.019531 885.984375 168.835938 C 886.375 168.722656 886.796875 168.492188 887.128906 168.226562 C 888.757812 166.902344 890.359375 165.585938 891.953125 164.242188 C 892.324219 163.910156 892.652344 163.507812 893.019531 163.152344 C 894.167969 162.042969 895.25 160.894531 896.464844 159.855469 C 897.285156 159.152344 898.222656 158.613281 899.117188 158.003906 C 899.769531 157.554688 900.492188 157.175781 901.148438 156.753906 C 902.320312 156 903.515625 155.378906 904.964844 155.390625 C 905.1875 155.394531 905.402344 155.347656 905.613281 155.300781 C 907.75 154.636719 909.898438 154.9375 912.058594 155.261719 C 913.09375 155.417969 913.898438 156.039062 914.820312 156.441406 C 915.4375 156.71875 915.871094 157.175781 916.265625 157.695312 C 916.34375 157.789062 916.324219 157.960938 916.292969 158.074219 C 916.277344 158.246094 916.148438 158.300781 915.972656 158.257812 C 915.769531 158.21875 915.558594 158.15625 915.351562 158.089844 C 913.691406 157.628906 912.011719 157.199219 910.253906 157.175781 C 908.496094 157.148438 906.785156 157.332031 905.082031 157.679688 C 904.605469 157.785156 904.128906 158.027344 903.679688 158.265625 C 900.757812 159.765625 898.300781 161.875 896.074219 164.269531 C 893.796875 166.671875 891.304688 168.875 888.515625 170.730469 C 887.253906 171.5625 885.953125 172.34375 884.519531 172.910156 C 883.984375 173.136719 883.421875 173.234375 882.851562 173.304688 C 880.585938 173.609375 878.386719 173.351562 876.257812 172.523438 C 874.582031 171.875 872.882812 171.226562 871.214844 170.601562 C 868.433594 169.589844 865.671875 168.542969 862.875 167.589844 C 860.890625 166.921875 858.835938 166.550781 856.691406 166.914062 C 854.386719 166.8125 852.289062 167.632812 850.195312 168.480469 C 849.199219 168.894531 848.265625 169.457031 847.378906 170.09375 C 845.433594 171.488281 843.75 173.183594 842.089844 174.871094 C 841.21875 176.222656 839.925781 177.167969 838.882812 178.363281 C 837.46875 180.027344 835.609375 181.179688 833.78125 182.355469 C 832.390625 183.242188 830.824219 183.449219 829.191406 183.230469 C 827.609375 183 826.070312 182.566406 824.605469 181.980469 C 822.988281 181.34375 821.394531 180.675781 819.730469 180.1875 C 819.3125 180.058594 818.910156 179.871094 818.539062 179.703125 C 817.148438 179.074219 815.679688 178.707031 814.191406 178.402344 C 813.550781 178.269531 812.898438 178.21875 812.261719 178.222656 C 809.5 178.304688 806.789062 178.628906 804.101562 179.304688 C 801.9375 179.835938 800.085938 180.90625 798.269531 182.132812 C 796.160156 183.535156 794.246094 185.195312 792.503906 187.015625 C 791.511719 188.058594 790.480469 189.058594 789.488281 190.105469 C 788.785156 190.839844 788.152344 191.613281 787.449219 192.347656 C 786.210938 193.667969 784.960938 194.933594 783.398438 195.914062 C 782.128906 196.71875 780.738281 197.105469 779.261719 196.964844 C 776.898438 196.710938 774.527344 196.433594 772.3125 195.460938 C 771.453125 195.101562 770.527344 194.945312 769.59375 194.738281 C 766.300781 194.058594 762.992188 194.070312 759.664062 194.113281 C 759.300781 194.113281 758.953125 194.160156 758.582031 194.242188 C 756.113281 194.785156 753.558594 194.9375 751.074219 195.265625 C 750.152344 195.382812 749.207031 195.507812 748.273438 195.6875 C 745.546875 196.179688 742.9375 196.972656 740.453125 198.183594 C 738.488281 199.113281 736.550781 200.035156 734.691406 201.191406 C 733 202.226562 731.476562 203.386719 730.191406 204.882812 C 730.0625 205.050781 729.898438 205.195312 729.742188 205.367188 C 729.398438 205.691406 728.605469 205.507812 728.472656 205.042969 C 728.308594 204.417969 728.167969 203.785156 728.089844 203.167969 C 728.023438 202.742188 728.175781 202.296875 728.496094 201.976562 C 729.527344 200.867188 730.492188 199.691406 731.789062 198.878906 C 733.695312 197.6875 735.609375 196.523438 737.667969 195.652344 C 738.078125 195.480469 738.445312 195.261719 738.863281 195.144531 C 739.394531 195.027344 739.878906 194.945312 740.382812 194.835938 Z M 740.382812 194.835938 " fill-opacity="1" fill-rule="nonzero"/></g></g></g></svg>