<svg xmlns="http://www.w3.org/2000/svg" xmlns:xlink="http://www.w3.org/1999/xlink" width="1230" zoomAndPan="magnify" viewBox="0 0 922.5 225" height="300" preserveAspectRatio="xMidYMid meet" version="1.0"><defs><g/><clipPath id="id1"><path d="M 688 123 L 900 123 L 900 181 L 688 181 Z M 688 123 " clip-rule="nonzero"/></clipPath><clipPath id="id2"><path d="M 677.871094 168.996094 L 897.597656 120.570312 L 908.25 168.90625 L 688.523438 217.335938 Z M 677.871094 168.996094 " clip-rule="nonzero"/></clipPath><clipPath id="id3"><path d="M 908.355469 168.5 L 688.628906 216.929688 L 677.972656 168.589844 L 897.699219 120.160156 Z M 908.355469 168.5 " clip-rule="nonzero"/></clipPath><clipPath id="id4"><path d="M 699 149 L 902 149 L 902 214 L 699 214 Z M 699 149 " clip-rule="nonzero"/></clipPath><clipPath id="id5"><path d="M 677.871094 168.996094 L 897.597656 120.570312 L 908.25 168.90625 L 688.523438 217.335938 Z M 677.871094 168.996094 " clip-rule="nonzero"/></clipPath><clipPath id="id6"><path d="M 908.355469 168.5 L 688.628906 216.929688 L 677.972656 168.589844 L 897.699219 120.160156 Z M 908.355469 168.5 " clip-rule="nonzero"/></clipPath><clipPath id="id7"><path d="M 693 140 L 900 140 L 900 207 L 693 207 Z M 693 140 " clip-rule="nonzero"/></clipPath><clipPath id="id8"><path d="M 677.871094 168.996094 L 897.597656 120.570312 L 908.25 168.90625 L 688.523438 217.335938 Z M 677.871094 168.996094 " clip-rule="nonzero"/></clipPath><clipPath id="id9"><path d="M 908.355469 168.5 L 688.628906 216.929688 L 677.972656 168.589844 L 897.699219 120.160156 Z M 908.355469 168.5 " clip-rule="nonzero"/></clipPath><clipPath id="id10"><path d="M 683 135 L 902 135 L 902 194 L 683 194 Z M 683 135 " clip-rule="nonzero"/></clipPath><clipPath id="id11"><path d="M 677.871094 168.996094 L 897.597656 120.570312 L 908.25 168.90625 L 688.523438 217.335938 Z M 677.871094 168.996094 " clip-rule="nonzero"/></clipPath><clipPath id="id12"><path d="M 908.355469 168.5 L 688.628906 216.929688 L 677.972656 168.589844 L 897.699219 120.160156 Z M 908.355469 168.5 " clip-rule="nonzero"/></clipPath></defs><g fill="#f39200" fill-opacity="1"><g transform="translate(10.272671, 175.850034)"><g><path d="M 129.648438 -150.257812 L 92.300781 -150.257812 L 92.300781 -91.011719 L 52.375 -91.011719 L 52.375 -150.257812 L 15.027344 -150.257812 L 15.027344 0 L 52.375 0 L 52.375 -63.324219 L 92.300781 -63.324219 L 92.300781 0 L 129.648438 0 Z M 129.648438 -150.257812 "/></g></g></g><g fill="#545454" fill-opacity="1"><g transform="translate(154.729808, 175.850034)"><g><path d="M 60.316406 1.933594 C 91.65625 1.933594 112.476562 -22.753906 112.476562 -54.308594 C 112.476562 -86.074219 91.65625 -110.761719 60.316406 -110.761719 C 29.40625 -110.761719 8.585938 -86.074219 8.585938 -54.734375 C 8.585938 -19.320312 28.546875 1.933594 60.316406 1.933594 Z M 60.316406 -23.828125 C 50.65625 -23.828125 44.21875 -34.773438 44.21875 -55.164062 C 44.21875 -70.835938 50.65625 -85.429688 60.316406 -85.429688 C 70.191406 -85.429688 76.628906 -71.050781 76.628906 -54.949219 C 76.628906 -38.421875 70.191406 -23.828125 60.316406 -23.828125 Z M 60.316406 -23.828125 "/></g></g></g><g fill="#545454" fill-opacity="1"><g transform="translate(275.578575, 175.850034)"><g><path d="M 56.023438 -82.210938 L 81.78125 -82.210938 L 81.78125 -108.183594 L 56.023438 -108.183594 L 56.023438 -136.519531 L 20.390625 -136.519531 L 20.390625 -108.183594 L 2.359375 -108.183594 L 2.359375 -82.210938 L 20.390625 -82.210938 L 20.390625 -35.632812 C 20.390625 -14.167969 35.632812 0 58.816406 0 L 82.210938 0 L 82.210938 -25.972656 L 66.113281 -25.972656 C 60.101562 -25.972656 56.023438 -30.480469 56.023438 -37.347656 Z M 56.023438 -82.210938 "/></g></g></g><g fill="#f39200" fill-opacity="1"><g transform="translate(363.148155, 175.850034)"><g><path d="M 37.347656 0 L 85.644531 0 L 98.308594 -112.691406 L 100.457031 -112.691406 L 113.335938 0 L 161.203125 0 L 196.621094 -151.542969 L 157.339844 -151.542969 L 135.660156 -26.617188 L 133.511719 -26.617188 L 118.488281 -151.542969 L 79.851562 -151.542969 L 65.253906 -26.617188 L 63.109375 -26.617188 L 41 -151.542969 L 1.71875 -151.542969 Z M 37.347656 0 "/></g></g></g><g fill="#545454" fill-opacity="1"><g transform="translate(561.699825, 175.850034)"><g><path d="M 117.199219 -25.972656 L 113.980469 -25.972656 C 112.046875 -25.972656 110.761719 -27.476562 110.761719 -30.050781 L 110.761719 -60.960938 C 110.761719 -91.011719 90.367188 -110.761719 59.457031 -110.761719 C 30.050781 -110.761719 9.015625 -93.589844 9.015625 -70.835938 L 42.285156 -70.835938 C 42.285156 -77.488281 48.511719 -84.789062 59.457031 -84.789062 C 70.191406 -84.789062 77.488281 -78.777344 77.488281 -69.761719 C 77.488281 -67.402344 73.625 -65.253906 67.402344 -63.964844 C 64.179688 -63.324219 60.101562 -62.894531 37.777344 -60.746094 C 19.535156 -58.601562 8.371094 -47.007812 8.371094 -31.125 C 8.371094 -11.589844 22.109375 1.503906 42.929688 1.503906 C 60.316406 1.503906 76.417969 -9.875 82.855469 -27.046875 L 84.359375 -27.046875 L 83.929688 -23.398438 C 81.996094 -9.445312 90.367188 0 105.179688 0 L 117.199219 0 Z M 55.378906 -23.828125 C 47.4375 -23.828125 42.285156 -28.121094 42.285156 -34.773438 C 42.285156 -48.941406 68.902344 -43.789062 76.84375 -51.515625 L 77.488281 -51.515625 L 77.488281 -42.285156 C 76.203125 -31.125 67.402344 -23.828125 55.378906 -23.828125 Z M 55.378906 -23.828125 "/></g></g></g><g fill="#545454" fill-opacity="1"><g transform="translate(682.548592, 175.850034)"><g><path d="M 30.480469 0 L 79.207031 0 L 108.613281 -108.398438 L 72.121094 -108.398438 L 56.023438 -27.476562 L 53.449219 -27.476562 L 37.5625 -108.398438 L 1.074219 -108.398438 Z M 30.480469 0 "/></g></g></g><g fill="#545454" fill-opacity="1"><g transform="translate(792.020818, 175.850034)"><g><path d="M 108.398438 -32.414062 C 95.089844 -27.90625 79.636719 -26.1875 68.257812 -27.046875 C 52.804688 -27.90625 42.929688 -34.988281 41.855469 -47.867188 L 41.855469 -49.371094 L 111.617188 -49.371094 L 111.617188 -53.878906 C 110.117188 -92.945312 95.949219 -110.761719 60.101562 -110.761719 C 29.191406 -110.761719 8.585938 -88.652344 8.585938 -54.523438 C 8.585938 -11.160156 37.777344 1.933594 66.113281 1.933594 C 83.929688 1.71875 101.960938 -3.433594 108.828125 -7.941406 Z M 42.070312 -62.894531 C 42.714844 -75.773438 50.441406 -84.144531 60.960938 -84.144531 C 71.910156 -84.144531 78.5625 -76.417969 78.5625 -63.109375 Z M 42.070312 -62.894531 "/></g></g></g><g clip-path="url(#id1)"><g clip-path="url(#id2)"><g clip-path="url(#id3)"><path fill="#f39200" d="M 701.097656 169.277344 C 701.097656 169.277344 701.347656 169.253906 701.601562 169.230469 C 705.09375 168.851562 708.613281 168.597656 712.121094 168.863281 C 712.707031 168.894531 713.296875 168.929688 713.875 168.929688 C 716.226562 168.933594 718.550781 169.234375 720.851562 169.734375 C 722.910156 170.15625 724.945312 170.617188 726.980469 171.078125 C 727.625 171.230469 728.300781 171.371094 728.886719 171.699219 C 729.6875 172.105469 730.515625 172.214844 731.335938 172.132812 C 734.4375 171.871094 737.480469 171.363281 740.355469 170.082031 C 741.585938 169.515625 742.730469 168.875 743.910156 168.226562 C 744.855469 167.691406 745.710938 167.046875 746.332031 166.066406 C 746.644531 165.574219 747.097656 165.148438 747.535156 164.792969 C 749.746094 162.84375 751.757812 160.710938 753.644531 158.445312 C 754.761719 157.09375 756.039062 155.867188 757.324219 154.675781 C 758.875 153.230469 760.804688 152.347656 762.613281 151.332031 C 763.960938 150.582031 765.382812 150.171875 766.859375 149.84375 C 767.441406 149.714844 768.007812 149.65625 768.613281 149.621094 C 770.363281 149.527344 772.128906 149.496094 773.882812 149.402344 C 774.746094 149.375 775.539062 149.460938 776.328125 149.835938 C 776.722656 150.011719 777.109375 150.152344 777.515625 150.257812 C 779.265625 150.585938 780.957031 151.09375 782.546875 151.878906 C 782.839844 152.042969 783.175781 152.097656 783.515625 152.183594 C 785.851562 152.839844 788.1875 153.496094 790.527344 154.179688 C 791.734375 154.53125 792.945312 154.914062 794.050781 155.546875 C 795.082031 156.132812 796.238281 156.398438 797.402344 156.566406 C 799.128906 156.800781 800.769531 156.503906 802.261719 155.65625 C 803.398438 154.984375 804.527344 154.246094 805.511719 153.316406 C 806.125 152.726562 806.667969 152.117188 807.152344 151.394531 C 808.265625 149.71875 809.519531 148.109375 810.226562 146.199219 C 810.304688 145.957031 810.445312 145.730469 810.601562 145.566406 C 812.289062 143.566406 813.746094 141.394531 816.054688 140.042969 C 816.425781 139.828125 816.71875 139.539062 817.039062 139.238281 C 817.742188 138.628906 818.554688 138.222656 819.449219 137.894531 C 820.464844 137.542969 821.507812 137.148438 822.53125 136.828125 C 823.011719 136.65625 823.496094 136.515625 823.992188 136.441406 C 825.726562 136.121094 827.449219 135.742188 829.195312 135.78125 C 831.464844 135.832031 833.710938 135.792969 835.964844 136.238281 C 838.03125 136.691406 840.015625 137.359375 841.835938 138.453125 C 843.796875 139.613281 845.84375 140.558594 847.832031 141.679688 C 849.003906 142.332031 850.15625 143.019531 851.289062 143.777344 C 853.445312 145.21875 855.832031 145.960938 858.449219 145.417969 C 859.277344 145.234375 860.085938 145.089844 860.925781 144.96875 C 862.613281 144.726562 864.136719 144.03125 865.652344 143.308594 C 866.179688 143.0625 866.675781 142.695312 867.03125 142.257812 C 868.054688 141.058594 869.269531 139.976562 869.863281 138.449219 C 869.945312 138.234375 870.121094 138.003906 870.277344 137.839844 C 871.386719 136.585938 872.574219 135.382812 873.644531 134.105469 C 874.464844 133.144531 875.492188 132.398438 876.148438 131.28125 C 877.515625 130.035156 878.808594 128.746094 880.394531 127.746094 C 881.472656 127.085938 882.519531 126.433594 883.5625 125.746094 C 885.332031 124.578125 887.320312 123.945312 889.445312 123.636719 C 889.851562 123.582031 890.292969 123.546875 890.679688 123.691406 C 892.402344 124.1875 894.148438 124.226562 895.90625 124.457031 C 897.332031 124.628906 898.332031 125.515625 899.046875 126.71875 C 899.105469 126.835938 899.0625 127.074219 898.992188 127.1875 C 898.917969 127.300781 898.722656 127.441406 898.59375 127.4375 C 898.367188 127.421875 898.140625 127.277344 897.898438 127.203125 C 897.414062 127.046875 896.9375 126.796875 896.472656 126.734375 C 894.796875 126.585938 893.128906 126.464844 891.472656 126.699219 C 888.339844 127.097656 885.511719 128.308594 882.90625 130.082031 C 882.347656 130.464844 881.78125 130.820312 881.257812 131.226562 C 880.089844 132.070312 879.042969 133.015625 878.128906 134.125 C 875.40625 137.421875 872.371094 140.464844 869.335938 143.503906 C 867.699219 145.132812 865.808594 146.359375 863.753906 147.269531 C 863.230469 147.515625 862.644531 147.644531 862.0625 147.773438 C 861.324219 147.933594 860.558594 147.972656 859.835938 148.199219 C 857.433594 148.855469 855.207031 148.242188 852.976562 147.335938 C 852.515625 147.148438 852.054688 146.957031 851.601562 146.664062 C 848.898438 144.921875 845.9375 143.753906 843.070312 142.308594 C 842.195312 142.273438 841.585938 141.5625 840.839844 141.238281 C 838.972656 140.515625 837.015625 139.972656 834.988281 139.832031 C 833.417969 139.722656 831.8125 139.753906 830.21875 139.683594 C 827.832031 139.527344 825.546875 140.125 823.320312 140.84375 C 819.382812 142.132812 816.167969 144.5 813.460938 147.566406 C 812.453125 148.699219 811.640625 149.980469 810.753906 151.21875 C 810.507812 151.5625 810.261719 151.910156 810.046875 152.25 C 808.480469 154.644531 806.261719 156.269531 803.8125 157.589844 C 802.234375 158.457031 800.527344 158.765625 798.714844 158.582031 C 797.03125 158.402344 795.382812 158.082031 793.867188 157.34375 C 792.886719 156.84375 791.851562 156.519531 790.769531 156.304688 C 790.027344 156.144531 789.308594 155.945312 788.578125 155.714844 C 787.300781 155.316406 786.027344 154.945312 784.644531 154.828125 C 784.058594 154.792969 783.457031 154.699219 782.921875 154.460938 C 781.109375 153.691406 779.171875 153.53125 777.296875 153.199219 C 776.390625 153.039062 775.464844 153.082031 774.539062 153.125 C 773.355469 153.15625 772.191406 153.285156 771.019531 153.378906 C 769.007812 153.59375 767.085938 154.246094 765.351562 155.277344 C 763.464844 156.375 761.632812 157.558594 759.902344 158.917969 C 758.21875 160.199219 756.691406 161.605469 755.304688 163.210938 C 754.003906 164.765625 752.488281 166.074219 750.988281 167.445312 C 749.992188 168.347656 748.960938 169.222656 747.96875 170.125 C 745.574219 172.277344 742.882812 173.941406 739.746094 174.765625 C 739.167969 174.921875 738.628906 175.109375 738.050781 175.265625 C 735.117188 176.140625 732.136719 176.34375 729.128906 175.578125 C 726.777344 174.988281 724.367188 174.578125 722 174.0625 C 719.460938 173.515625 716.859375 173.40625 714.25 173.265625 C 710.46875 173.0625 706.71875 173.300781 702.976562 173.574219 C 701.546875 173.664062 700.199219 174.121094 698.871094 174.675781 C 698.160156 174.960938 697.488281 175.273438 696.835938 175.675781 C 694.429688 177.179688 691.773438 178.285156 689.484375 180.027344 C 689.234375 180.210938 688.871094 180.324219 688.5625 180.390625 C 688.472656 180.410156 688.277344 180.257812 688.183594 180.117188 C 688.085938 179.976562 688.074219 179.785156 688.101562 179.617188 C 688.273438 178.636719 688.4375 177.625 688.707031 176.65625 C 688.96875 175.65625 689.519531 174.785156 690.398438 174.234375 C 692.050781 173.253906 693.738281 172.296875 695.40625 171.378906 C 695.980469 171.054688 696.636719 170.8125 697.265625 170.609375 C 698.230469 170.300781 699.234375 170.175781 700.128906 169.71875 C 700.347656 169.378906 700.605469 169.386719 701.097656 169.277344 Z M 701.097656 169.277344 " fill-opacity="1" fill-rule="nonzero"/></g></g></g><g clip-path="url(#id4)"><g clip-path="url(#id5)"><g clip-path="url(#id6)"><path fill="#f39200" d="M 715.273438 196.175781 C 716.695312 195.894531 718.023438 195.929688 719.367188 195.890625 C 722.636719 195.820312 725.875 196.179688 729.105469 196.800781 C 730.683594 197.101562 732.226562 197.507812 733.648438 198.269531 C 735.757812 199.363281 737.988281 199.976562 740.359375 200.070312 C 741.945312 200.53125 743.507812 200.320312 745.109375 200.128906 C 747.617188 199.804688 749.976562 198.957031 752.292969 197.925781 C 752.671875 197.746094 753 197.480469 753.335938 197.242188 C 754.082031 196.6875 754.792969 196.109375 755.539062 195.554688 C 756.234375 195.042969 756.820312 194.492188 757.347656 193.824219 C 757.75 193.3125 758.261719 192.84375 758.738281 192.378906 C 759.78125 191.402344 760.820312 190.425781 761.578125 189.1875 C 761.675781 189.035156 761.769531 188.886719 761.878906 188.796875 C 763.035156 188.054688 763.710938 186.867188 764.660156 185.910156 C 765.550781 184.996094 766.554688 184.289062 767.53125 183.457031 C 767.964844 183.070312 768.386719 182.652344 768.816406 182.261719 C 769.671875 181.457031 770.574219 180.738281 771.832031 180.589844 C 772.675781 180.46875 773.410156 180.015625 774.117188 179.566406 C 777.171875 177.628906 780.503906 176.664062 784.058594 176.273438 C 784.875 176.1875 785.722656 176.230469 786.5625 176.238281 C 789.089844 176.300781 791.542969 176.765625 793.976562 177.433594 C 796.796875 178.242188 799.667969 178.84375 802.507812 179.582031 C 803.667969 179.878906 804.8125 179.949219 806.003906 179.949219 C 807.027344 179.917969 807.988281 179.738281 808.921875 179.304688 C 809.300781 179.125 809.6875 178.972656 810.074219 178.824219 C 811.570312 178.167969 812.808594 177.214844 813.777344 175.894531 C 814.125 175.429688 814.464844 174.929688 814.8125 174.464844 C 815.257812 173.847656 815.785156 173.308594 816.4375 172.90625 C 817.984375 171.882812 819.308594 170.582031 820.601562 169.289062 C 821.980469 167.945312 823.484375 166.738281 824.945312 165.472656 C 826.382812 164.832031 827.742188 163.980469 829.347656 163.65625 C 830.914062 163.3125 832.449219 162.972656 834.011719 162.597656 C 836.15625 162.09375 838.34375 162.226562 840.488281 162.601562 C 842.296875 162.914062 844.105469 163.363281 845.777344 164.226562 C 846.652344 164.6875 847.644531 164.953125 848.589844 165.296875 C 849.21875 165.515625 849.875 165.730469 850.480469 165.984375 C 853.410156 167.289062 856.449219 168.210938 859.484375 169.265625 C 860.042969 169.464844 860.621094 169.597656 861.175781 169.769531 C 863.320312 170.433594 865.472656 170.414062 867.632812 169.839844 C 868.765625 169.558594 869.90625 169.339844 870.960938 168.71875 C 871.667969 168.269531 872.375 167.820312 872.988281 167.230469 C 874.167969 166.160156 875.230469 164.980469 876.539062 164.042969 C 876.925781 163.761719 877.25 163.335938 877.550781 162.945312 C 878.230469 162.078125 878.878906 161.222656 879.566406 160.386719 C 879.820312 160.070312 880.144531 159.804688 880.480469 159.570312 C 880.949219 159.207031 881.429688 158.90625 881.933594 158.566406 C 883.390625 157.5625 884.722656 156.457031 885.867188 155.066406 C 886.222656 154.632812 886.722656 154.261719 887.1875 153.898438 C 888.550781 152.914062 889.921875 151.964844 891.320312 151.007812 C 892.519531 150.15625 893.925781 149.816406 895.316406 149.539062 C 896.886719 149.226562 898.46875 149.234375 900.078125 149.367188 C 900.472656 149.410156 900.921875 149.539062 901.28125 149.71875 C 901.539062 149.859375 901.742188 150.203125 901.925781 150.453125 C 902.074219 150.683594 901.746094 151.242188 901.488281 151.234375 C 900.335938 151.128906 899.164062 150.933594 897.980469 150.96875 C 895.910156 151.066406 894.070312 151.796875 892.363281 152.953125 C 892.167969 153.09375 891.984375 153.296875 891.753906 153.414062 C 889.140625 154.867188 887.136719 157.027344 885.210938 159.242188 C 884.101562 160.492188 883.152344 161.902344 882.164062 163.257812 C 881.523438 164.148438 880.878906 165.035156 880.238281 165.925781 C 879.007812 167.660156 877.535156 169.152344 875.890625 170.457031 C 873.753906 172.164062 871.324219 173.285156 868.570312 173.5 C 867.902344 173.550781 867.214844 173.636719 866.566406 173.617188 C 865.65625 173.589844 864.71875 173.570312 863.808594 173.382812 C 861.847656 172.96875 859.921875 172.417969 857.976562 171.773438 C 854.152344 170.503906 850.425781 168.953125 846.742188 167.296875 C 844.023438 166.078125 841.160156 165.503906 838.191406 165.476562 C 836.761719 165.433594 835.351562 165.453125 833.964844 165.890625 C 833.238281 166.113281 832.488281 166.214844 831.746094 166.347656 C 829.824219 166.703125 828.058594 167.453125 826.300781 168.261719 C 824.695312 169.003906 823.292969 170.09375 822.015625 171.316406 C 820.972656 172.292969 819.96875 173.296875 818.929688 174.273438 C 817.839844 175.324219 816.789062 176.402344 815.9375 177.660156 C 814.90625 179.121094 813.585938 180.292969 812.136719 181.324219 C 810.300781 182.640625 808.195312 183.167969 805.980469 183.203125 C 805.046875 183.214844 804.125 183.125 803.226562 182.996094 C 800.472656 182.628906 797.769531 182.054688 795.132812 181.207031 C 792.976562 180.480469 790.722656 180.195312 788.464844 180.042969 C 785.558594 179.871094 782.800781 180.511719 780.136719 181.585938 C 777.945312 182.460938 775.804688 183.417969 773.664062 184.378906 C 773.046875 184.644531 772.488281 185.027344 771.972656 185.46875 C 769.949219 187.113281 767.964844 188.785156 766.160156 190.679688 C 763.960938 192.984375 761.5625 195.105469 759.238281 197.273438 C 757.820312 198.59375 756.269531 199.746094 754.667969 200.816406 C 753.066406 201.882812 751.195312 202.457031 749.371094 203.085938 C 745.777344 204.335938 742.101562 204.171875 738.4375 203.484375 C 737.535156 203.324219 736.632812 203.035156 735.828125 202.597656 C 733.339844 201.257812 730.578125 200.859375 727.839844 200.425781 C 726.835938 200.257812 725.855469 200.179688 724.84375 199.980469 C 722.496094 199.554688 720.15625 199.617188 717.835938 199.769531 C 716.15625 199.882812 714.53125 200.269531 713.070312 201.242188 C 712.457031 201.671875 711.746094 201.957031 711.082031 202.300781 C 709.195312 203.234375 707.445312 204.367188 705.800781 205.671875 C 705.332031 206.035156 704.902344 206.421875 704.398438 206.761719 C 702.832031 207.855469 701.777344 209.355469 701.144531 211.152344 C 700.878906 211.859375 700.648438 212.558594 700.386719 213.265625 C 700.367188 213.335938 700.222656 213.402344 700.183594 213.375 C 700.070312 213.304688 699.882812 213.183594 699.894531 213.082031 C 699.988281 211.46875 700.488281 209.929688 700.789062 208.371094 C 701.242188 207.652344 701.628906 206.917969 702.164062 206.28125 C 702.84375 205.414062 703.535156 204.613281 704.019531 203.59375 C 704.3125 203.011719 704.851562 202.535156 705.292969 202.046875 C 706.753906 200.492188 708.410156 199.25 710.511719 198.6875 C 710.996094 198.550781 711.421875 198.292969 711.792969 197.917969 C 712.78125 196.855469 713.988281 196.332031 715.273438 196.175781 Z M 715.273438 196.175781 " fill-opacity="1" fill-rule="nonzero"/></g></g></g><g clip-path="url(#id7)"><g clip-path="url(#id8)"><g clip-path="url(#id9)"><path fill="#f39200" d="M 714.910156 186.347656 C 716.773438 186.164062 718.535156 185.96875 720.300781 186.101562 C 724.402344 186.429688 728.484375 186.832031 732.503906 187.667969 C 734.464844 188.082031 736.464844 188.386719 738.398438 188.96875 C 740.15625 189.488281 741.863281 189.339844 743.628906 189.015625 C 744.863281 188.777344 746.039062 188.257812 747.304688 188.304688 C 747.632812 188.328125 747.949219 188.164062 748.273438 188.027344 C 749.496094 187.429688 750.597656 186.734375 751.578125 185.769531 C 752.582031 184.769531 753.660156 183.816406 754.664062 182.816406 C 755.039062 182.472656 755.417969 182.128906 755.640625 181.691406 C 756.84375 179.542969 758.515625 177.773438 760.070312 175.90625 C 760.503906 175.386719 761.019531 174.949219 761.585938 174.597656 C 763.089844 173.679688 764.589844 172.730469 766.152344 171.933594 C 768.003906 170.972656 769.941406 170.121094 771.859375 169.3125 C 773.570312 168.609375 775.390625 168.238281 777.253906 168.21875 C 777.929688 168.199219 778.582031 168.25 779.257812 168.234375 C 780.25 168.207031 781.269531 168.308594 782.253906 168.089844 C 782.746094 167.984375 783.257812 167.96875 783.757812 168.050781 C 785.332031 168.324219 786.90625 168.59375 788.441406 168.96875 C 790.382812 169.453125 792.304688 170.132812 794.253906 170.644531 C 795.792969 171.054688 797.339844 171.492188 798.796875 172.113281 C 799.691406 172.5 800.558594 172.503906 801.492188 172.496094 C 804.027344 172.457031 806.238281 171.511719 808.363281 170.332031 C 809.105469 169.90625 809.722656 169.347656 810.261719 168.710938 C 811.417969 167.382812 812.566406 166.023438 813.695312 164.703125 C 814.230469 164.066406 814.722656 163.371094 815.296875 162.757812 C 815.867188 162.144531 816.488281 161.585938 817.105469 161.027344 C 817.582031 160.566406 818.140625 160.179688 818.582031 159.695312 C 819.667969 158.480469 820.90625 157.523438 822.265625 156.671875 C 822.746094 156.371094 823.296875 156.089844 823.773438 155.757812 C 825.03125 154.894531 826.371094 154.242188 827.910156 154.066406 C 828.539062 153.992188 829.171875 153.65625 829.785156 153.359375 C 830.542969 152.996094 831.359375 152.753906 832.171875 152.636719 C 833.167969 152.484375 834.15625 152.296875 835.167969 152.203125 C 837.121094 152.003906 839.027344 152.460938 840.835938 153.066406 C 842.894531 153.785156 844.914062 154.605469 846.855469 155.671875 C 848.542969 156.601562 850.394531 157.265625 851.992188 158.375 C 853.5 158.917969 854.867188 159.722656 856.332031 160.375 C 858.214844 161.164062 860.167969 161.542969 862.21875 161.058594 C 863.109375 160.863281 864.046875 160.722656 864.957031 160.617188 C 866.902344 160.382812 868.683594 159.699219 870.296875 158.53125 C 871.378906 157.742188 872.410156 156.863281 873.285156 155.859375 C 874.640625 154.261719 875.914062 152.582031 877.46875 151.167969 C 878.226562 149.929688 879.3125 149.007812 880.152344 147.847656 C 880.871094 146.875 881.695312 146.078125 882.59375 145.328125 C 883.78125 144.285156 885 143.234375 886.410156 142.46875 C 886.835938 142.214844 887.300781 141.980469 887.785156 141.84375 C 888.75 141.53125 889.710938 141.222656 890.679688 141.074219 C 891.492188 140.960938 892.359375 140.964844 893.160156 141.082031 C 894.820312 141.300781 896.460938 141.585938 898.105469 141.875 C 898.339844 141.921875 898.5625 142.066406 898.78125 142.179688 C 899.183594 142.382812 899.535156 142.957031 899.390625 143.183594 C 899.199219 143.484375 898.867188 143.589844 898.515625 143.605469 C 898.265625 143.625 898.003906 143.617188 897.777344 143.605469 C 895.75 143.335938 893.773438 143.578125 891.789062 143.917969 C 890.699219 144.09375 889.6875 144.476562 888.742188 145.011719 C 887.570312 145.691406 886.4375 146.394531 885.347656 147.15625 C 884.539062 147.722656 883.75 148.386719 883.074219 149.121094 C 881.027344 151.226562 879.054688 153.386719 876.890625 155.421875 C 875.851562 156.398438 874.890625 157.453125 873.886719 158.453125 C 873.277344 159.042969 872.613281 159.546875 871.960938 160.082031 C 870.835938 160.980469 869.578125 161.550781 868.191406 161.984375 C 866.265625 162.605469 864.242188 162.789062 862.320312 163.277344 C 860.183594 163.816406 858.125 163.390625 856.1875 162.488281 C 851.988281 160.550781 847.753906 158.722656 843.449219 157.039062 C 842.355469 156.597656 841.226562 156.296875 840.070312 156.03125 C 837.308594 155.339844 834.566406 155.617188 831.855469 156.183594 C 831.519531 156.257812 831.226562 156.386719 830.886719 156.460938 C 827.511719 157.078125 824.691406 158.902344 821.9375 160.871094 C 820.574219 161.855469 819.300781 162.949219 817.980469 163.984375 C 817.046875 164.710938 816.238281 165.574219 815.464844 166.457031 C 813.976562 168.183594 812.445312 169.851562 810.949219 171.546875 C 810.800781 171.742188 810.574219 171.890625 810.371094 172 C 807.367188 173.863281 804.136719 174.835938 800.609375 174.769531 C 797.828125 174.730469 795.117188 174.125 792.441406 173.382812 C 790.410156 172.792969 788.417969 172.226562 786.339844 171.871094 C 785.4375 171.710938 784.53125 171.554688 783.589844 171.664062 C 782.769531 171.746094 781.921875 171.707031 781.082031 171.695312 C 778.617188 171.621094 776.257812 172.175781 773.976562 173.066406 C 771.390625 174.058594 768.914062 175.253906 766.460938 176.542969 C 764.578125 177.511719 762.875 178.699219 761.539062 180.390625 C 760.523438 181.621094 759.425781 182.773438 758.292969 183.933594 C 757.054688 185.179688 755.734375 186.347656 754.449219 187.542969 C 754.019531 187.929688 753.550781 188.292969 753.121094 188.679688 C 750.667969 190.84375 747.792969 192.128906 744.609375 192.734375 C 742.6875 193.089844 740.804688 193.019531 738.878906 192.46875 C 733.523438 190.984375 728.050781 190.113281 722.535156 189.800781 C 721.621094 189.742188 720.703125 189.8125 719.761719 189.792969 C 718.050781 189.78125 716.492188 190.15625 714.902344 190.832031 C 712.660156 191.78125 710.472656 192.816406 708.304688 193.941406 C 704.953125 195.691406 701.746094 197.664062 699.070312 200.429688 C 697.941406 201.589844 696.953125 202.8125 696.167969 204.222656 C 695.679688 205.078125 695.28125 206.042969 694.53125 206.726562 C 694.476562 206.773438 694.359375 206.828125 694.285156 206.78125 C 694.214844 206.765625 694.164062 206.675781 694.113281 206.589844 C 694.046875 206.445312 693.945312 206.269531 693.980469 206.132812 C 694.1875 204.886719 694.425781 203.628906 694.574219 202.394531 C 694.699219 201.359375 695.113281 200.457031 695.699219 199.613281 C 696.636719 198.300781 697.660156 197.101562 698.488281 195.75 C 698.871094 195.144531 699.496094 194.617188 700.113281 194.191406 C 702.601562 192.472656 705.058594 190.761719 707.796875 189.441406 C 709.691406 188.535156 711.546875 187.605469 713.515625 186.882812 C 714.070312 186.628906 714.550781 186.457031 714.910156 186.347656 Z M 714.910156 186.347656 " fill-opacity="1" fill-rule="nonzero"/></g></g></g><g clip-path="url(#id10)"><g clip-path="url(#id11)"><g clip-path="url(#id12)"><path fill="#f39200" d="M 697.285156 181.359375 C 698 181.105469 698.707031 180.949219 699.484375 181.105469 C 700.324219 181.277344 701.140625 181.03125 701.957031 180.785156 C 703.171875 180.453125 704.367188 180.027344 705.546875 179.671875 C 706.269531 179.445312 706.992188 179.222656 707.746094 179.121094 C 710.410156 178.792969 713.054688 178.503906 715.726562 178.207031 C 716.386719 178.125 717.058594 178.105469 717.726562 178.21875 C 719.132812 178.460938 720.554688 178.472656 722 178.449219 C 725.453125 178.335938 728.851562 178.984375 732.21875 179.640625 C 732.621094 179.714844 733.03125 179.820312 733.421875 179.992188 C 734.960938 180.691406 736.585938 181.046875 738.253906 181.300781 C 739.25 181.4375 740.242188 181.703125 741.210938 181.847656 C 741.613281 181.921875 742.0625 181.921875 742.457031 181.800781 C 743.574219 181.457031 744.695312 181.144531 745.683594 180.507812 C 747.789062 179.101562 749.761719 177.527344 751.078125 175.320312 C 751.695312 174.308594 752.464844 173.421875 753.3125 172.585938 C 753.734375 172.167969 754.195312 171.773438 754.546875 171.308594 C 756.21875 168.957031 758.382812 167.082031 760.351562 165.054688 C 762.117188 163.269531 764.128906 161.722656 766.445312 160.691406 C 767.621094 160.171875 768.804688 159.847656 770.035156 159.574219 C 772.34375 159.097656 774.679688 158.875 777.027344 158.847656 C 778.632812 158.816406 780.179688 159.125 781.703125 159.601562 C 782.742188 159.925781 783.78125 160.25 784.816406 160.574219 C 785.234375 160.707031 785.613281 160.820312 786.003906 160.992188 C 789.019531 162.539062 792.265625 163.382812 795.371094 164.746094 C 796.050781 165.050781 796.800781 165.242188 797.503906 165.511719 C 798.449219 165.855469 799.445312 165.992188 800.453125 166.03125 C 801.566406 166.109375 802.574219 165.855469 803.59375 165.371094 C 805.34375 164.53125 806.84375 163.289062 808.441406 162.222656 C 808.582031 162.125 808.722656 162.03125 808.824219 161.910156 C 810.019531 160.605469 811.253906 159.328125 812.417969 158.03125 C 812.800781 157.589844 813.074219 157.074219 813.378906 156.550781 C 813.945312 155.617188 814.59375 154.757812 815.347656 153.941406 C 816.550781 152.667969 817.664062 151.285156 818.738281 149.878906 C 819.394531 149.054688 820.152344 148.398438 821.0625 148.003906 C 823.34375 146.949219 825.644531 145.984375 828.175781 145.625 C 831.394531 145.171875 834.523438 145.328125 837.613281 146.335938 C 839.695312 147.015625 841.792969 147.625 843.722656 148.628906 C 843.867188 148.695312 844.015625 148.792969 844.183594 148.820312 C 846.375 149.410156 848.394531 150.523438 850.546875 151.21875 C 851.800781 151.65625 852.933594 152.414062 854.238281 152.777344 C 854.890625 152.960938 855.535156 153.109375 856.164062 153.328125 C 857.730469 153.859375 859.324219 153.476562 860.902344 153.484375 C 861.851562 153.113281 862.785156 152.8125 863.691406 152.382812 C 864.449219 152.023438 865.15625 151.574219 865.976562 151.359375 C 866.429688 151.226562 866.917969 150.957031 867.300781 150.644531 C 869.183594 149.09375 871.035156 147.550781 872.875 145.972656 C 873.308594 145.585938 873.6875 145.113281 874.109375 144.695312 C 875.433594 143.394531 876.683594 142.046875 878.089844 140.828125 C 879.035156 140 880.121094 139.371094 881.15625 138.65625 C 881.910156 138.132812 882.746094 137.6875 883.507812 137.195312 C 884.859375 136.3125 886.246094 135.585938 887.925781 135.605469 C 888.183594 135.613281 888.429688 135.558594 888.675781 135.503906 C 891.148438 134.734375 893.644531 135.09375 896.148438 135.484375 C 897.347656 135.671875 898.285156 136.410156 899.355469 136.886719 C 900.074219 137.21875 900.578125 137.753906 901.035156 138.371094 C 901.125 138.480469 901.105469 138.679688 901.070312 138.816406 C 901.050781 139.015625 900.902344 139.082031 900.699219 139.027344 C 900.460938 138.984375 900.21875 138.90625 899.976562 138.832031 C 898.050781 138.28125 896.101562 137.765625 894.0625 137.730469 C 892.027344 137.691406 890.042969 137.902344 888.070312 138.304688 C 887.515625 138.425781 886.964844 138.707031 886.449219 138.984375 C 883.0625 140.738281 880.226562 143.214844 877.65625 146.023438 C 875.023438 148.847656 872.148438 151.429688 868.921875 153.605469 C 867.460938 154.574219 865.953125 155.492188 864.292969 156.152344 C 863.675781 156.417969 863.023438 156.527344 862.367188 156.609375 C 859.738281 156.960938 857.1875 156.644531 854.714844 155.664062 C 852.773438 154.886719 850.796875 154.121094 848.863281 153.378906 C 845.632812 152.171875 842.425781 150.929688 839.179688 149.792969 C 836.878906 149 834.492188 148.550781 832.007812 148.96875 C 829.335938 148.84375 826.90625 149.800781 824.480469 150.792969 C 823.332031 151.273438 822.253906 151.933594 821.226562 152.679688 C 818.976562 154.3125 817.027344 156.300781 815.113281 158.28125 C 814.109375 159.867188 812.613281 160.976562 811.410156 162.378906 C 809.777344 164.332031 807.628906 165.683594 805.515625 167.058594 C 803.90625 168.097656 802.089844 168.332031 800.195312 168.070312 C 798.363281 167.789062 796.574219 167.273438 794.871094 166.578125 C 792.996094 165.820312 791.148438 165.027344 789.214844 164.445312 C 788.730469 164.292969 788.261719 164.070312 787.832031 163.871094 C 786.21875 163.125 784.511719 162.6875 782.785156 162.320312 C 782.042969 162.160156 781.289062 162.097656 780.546875 162.097656 C 777.34375 162.1875 774.203125 162.554688 771.089844 163.339844 C 768.582031 163.957031 766.441406 165.207031 764.34375 166.644531 C 761.902344 168.289062 759.691406 170.238281 757.679688 172.371094 C 756.53125 173.597656 755.339844 174.769531 754.195312 176 C 753.382812 176.859375 752.652344 177.769531 751.839844 178.628906 C 750.410156 180.179688 748.96875 181.667969 747.15625 182.8125 C 745.6875 183.753906 744.082031 184.207031 742.367188 184.03125 C 739.625 183.726562 736.878906 183.390625 734.304688 182.234375 C 733.304688 181.804688 732.234375 181.617188 731.148438 181.371094 C 727.328125 180.554688 723.492188 180.554688 719.636719 180.59375 C 719.214844 180.589844 718.808594 180.644531 718.378906 180.742188 C 715.523438 181.371094 712.5625 181.535156 709.679688 181.910156 C 708.617188 182.046875 707.519531 182.191406 706.4375 182.398438 C 703.277344 182.964844 700.257812 183.890625 697.378906 185.304688 C 695.105469 186.390625 692.863281 187.46875 690.710938 188.820312 C 688.757812 190.03125 686.996094 191.394531 685.511719 193.152344 C 685.363281 193.347656 685.175781 193.519531 684.992188 193.71875 C 684.59375 194.101562 683.675781 193.878906 683.523438 193.328125 C 683.328125 192.59375 683.164062 191.847656 683.066406 191.121094 C 682.988281 190.621094 683.164062 190.09375 683.53125 189.722656 C 684.726562 188.417969 685.839844 187.035156 687.339844 186.085938 C 689.542969 184.691406 691.757812 183.328125 694.144531 182.3125 C 694.613281 182.113281 695.039062 181.855469 695.527344 181.714844 C 696.140625 181.582031 696.699219 181.488281 697.285156 181.359375 Z M 697.285156 181.359375 " fill-opacity="1" fill-rule="nonzero"/></g></g></g></svg>