<svg xmlns="http://www.w3.org/2000/svg" xmlns:xlink="http://www.w3.org/1999/xlink" width="500" zoomAndPan="magnify" viewBox="0 0 375 374.999991" height="500" preserveAspectRatio="xMidYMid meet" version="1.0"><defs><g/><clipPath id="id1"><path d="M 58.34375 209.535156 L 316 209.535156 L 316 241.128906 L 58.34375 241.128906 Z M 58.34375 209.535156 " clip-rule="nonzero"/></clipPath><clipPath id="id2"><path d="M 58.089844 241.320312 L 315 241.320312 L 315 272.914062 L 58.089844 272.914062 Z M 58.089844 241.320312 " clip-rule="nonzero"/></clipPath><clipPath id="id3"><path d="M 58.34375 273.105469 L 316 273.105469 L 316 304.699219 L 58.34375 304.699219 Z M 58.34375 273.105469 " clip-rule="nonzero"/></clipPath></defs><rect x="-37.5" width="450" fill="#ffffff" y="-37.499999" height="449.999989" fill-opacity="1"/><path fill="#f39200" d="M 187.5 375 C 137.441406 375 90.304688 355.515625 54.929688 320.070312 C 19.484375 284.695312 0 237.558594 0 187.5 C 0 137.441406 19.484375 90.304688 54.929688 54.929688 C 90.304688 19.484375 137.441406 0 187.5 0 C 237.558594 0 284.695312 19.484375 320.070312 54.929688 C 355.515625 90.378906 375 137.441406 375 187.5 C 375 237.558594 355.515625 284.695312 320.070312 320.070312 C 284.695312 355.515625 237.558594 375 187.5 375 Z M 187.5 11.242188 C 140.4375 11.242188 96.148438 29.601562 62.875 62.875 C 29.601562 96.148438 11.242188 140.4375 11.242188 187.5 C 11.242188 234.5625 29.601562 278.851562 62.875 312.125 C 96.148438 345.398438 140.4375 363.757812 187.5 363.757812 C 234.5625 363.757812 278.851562 345.398438 312.125 312.125 C 345.398438 278.851562 363.757812 234.5625 363.757812 187.5 C 363.757812 140.4375 345.398438 96.148438 312.125 62.875 C 278.851562 29.601562 234.5625 11.242188 187.5 11.242188 Z M 187.5 11.242188 " fill-opacity="1" fill-rule="nonzero"/><g clip-path="url(#id1)"><path fill="#f39200" d="M 312.09375 228.082031 C 305.882812 228.082031 302.902344 225.03125 298.8125 220.832031 L 298.710938 220.734375 C 293.8125 215.734375 287.75 209.535156 275.984375 209.535156 C 264.113281 209.535156 258.054688 215.785156 253.15625 220.832031 C 249.066406 225.03125 246.085938 228.082031 239.871094 228.082031 C 233.660156 228.082031 230.679688 225.03125 226.589844 220.832031 L 226.4375 220.683594 C 221.589844 215.734375 215.578125 209.585938 203.914062 209.585938 C 192.042969 209.585938 185.984375 215.832031 181.132812 220.832031 L 181.082031 220.882812 C 176.992188 225.082031 174.011719 228.132812 167.800781 228.132812 C 161.589844 228.132812 158.609375 225.082031 154.519531 220.882812 L 154.367188 220.734375 C 149.519531 215.785156 143.457031 209.585938 131.691406 209.585938 C 119.820312 209.585938 113.761719 215.832031 108.910156 220.832031 L 108.859375 220.882812 C 104.769531 225.082031 101.789062 228.132812 95.578125 228.132812 C 89.367188 228.132812 86.386719 225.082031 82.296875 220.882812 L 82.195312 220.78125 C 77.292969 215.785156 71.234375 209.585938 59.464844 209.585938 L 56.4375 209.585938 L 56.4375 222.582031 L 59.464844 222.582031 C 65.679688 222.582031 68.660156 225.632812 72.75 229.832031 L 72.902344 229.980469 C 77.75 234.929688 83.808594 241.128906 95.578125 241.128906 C 107.445312 241.128906 113.507812 234.878906 118.355469 229.878906 L 118.40625 229.832031 C 122.496094 225.632812 125.476562 222.582031 131.691406 222.582031 C 137.902344 222.582031 140.882812 225.632812 144.972656 229.832031 L 145.074219 229.929688 C 149.972656 234.929688 156.03125 241.128906 167.800781 241.128906 C 179.667969 241.128906 185.730469 234.878906 190.578125 229.878906 L 190.628906 229.832031 C 194.71875 225.632812 197.699219 222.582031 203.914062 222.582031 C 210.175781 222.582031 213.105469 225.632812 217.144531 229.832031 C 221.992188 234.828125 228.054688 241.078125 239.921875 241.078125 C 251.792969 241.078125 257.851562 234.828125 262.699219 229.832031 L 262.75 229.78125 C 266.84375 225.582031 269.824219 222.53125 276.035156 222.53125 C 282.246094 222.53125 285.226562 225.582031 289.316406 229.78125 L 289.417969 229.878906 C 294.316406 234.878906 300.378906 241.078125 312.09375 241.078125 L 315.125 241.078125 L 315.125 228.082031 Z M 312.09375 228.082031 " fill-opacity="1" fill-rule="nonzero"/></g><g clip-path="url(#id2)"><path fill="#f39200" d="M 311.839844 259.867188 C 305.628906 259.867188 302.648438 256.816406 298.558594 252.617188 L 298.457031 252.519531 C 293.558594 247.519531 287.496094 241.320312 275.730469 241.320312 C 263.859375 241.320312 257.800781 247.570312 252.902344 252.617188 C 248.808594 256.816406 245.832031 259.867188 239.617188 259.867188 C 233.40625 259.867188 230.425781 256.816406 226.335938 252.617188 L 226.183594 252.46875 C 221.335938 247.519531 215.324219 241.371094 203.660156 241.371094 C 191.789062 241.371094 185.730469 247.621094 180.878906 252.617188 L 180.828125 252.667969 C 176.738281 256.867188 173.757812 259.917969 167.546875 259.917969 C 161.335938 259.917969 158.355469 256.867188 154.265625 252.667969 L 154.113281 252.519531 C 149.261719 247.570312 143.203125 241.371094 131.433594 241.371094 C 119.566406 241.371094 113.503906 247.621094 108.65625 252.617188 L 108.605469 252.667969 C 104.515625 256.867188 101.535156 259.917969 95.324219 259.917969 C 89.113281 259.917969 86.132812 256.867188 82.039062 252.667969 L 81.941406 252.566406 C 77.039062 247.570312 70.980469 241.371094 59.210938 241.371094 L 56.183594 241.371094 L 56.183594 254.367188 L 59.210938 254.367188 C 65.425781 254.367188 68.402344 257.417969 72.496094 261.617188 L 72.648438 261.765625 C 77.496094 266.714844 83.554688 272.914062 95.324219 272.914062 C 107.191406 272.914062 113.253906 266.664062 118.101562 261.667969 L 118.152344 261.617188 C 122.242188 257.417969 125.222656 254.367188 131.433594 254.367188 C 137.648438 254.367188 140.628906 257.417969 144.71875 261.617188 L 144.820312 261.714844 C 149.71875 266.714844 155.777344 272.914062 167.546875 272.914062 C 179.414062 272.914062 185.476562 266.664062 190.324219 261.667969 L 190.375 261.617188 C 194.464844 257.417969 197.445312 254.367188 203.660156 254.367188 C 209.921875 254.367188 212.851562 257.417969 216.890625 261.617188 C 221.738281 266.617188 227.800781 272.863281 239.667969 272.863281 C 251.539062 272.863281 257.597656 266.617188 262.445312 261.617188 L 262.496094 261.566406 C 266.589844 257.367188 269.566406 254.316406 275.78125 254.316406 C 281.992188 254.316406 284.972656 257.367188 289.0625 261.566406 L 289.164062 261.667969 C 294.0625 266.664062 300.125 272.863281 311.839844 272.863281 L 314.871094 272.863281 L 314.871094 259.867188 Z M 311.839844 259.867188 " fill-opacity="1" fill-rule="nonzero"/></g><g clip-path="url(#id3)"><path fill="#f39200" d="M 312.09375 291.652344 C 305.882812 291.652344 302.902344 288.601562 298.8125 284.402344 L 298.710938 284.304688 C 293.8125 279.304688 287.75 273.105469 275.984375 273.105469 C 264.113281 273.105469 258.054688 279.355469 253.15625 284.402344 C 249.066406 288.601562 246.085938 291.652344 239.871094 291.652344 C 233.660156 291.652344 230.679688 288.601562 226.589844 284.402344 L 226.4375 284.253906 C 221.589844 279.304688 215.578125 273.15625 203.914062 273.15625 C 192.042969 273.15625 185.984375 279.40625 181.132812 284.402344 L 181.082031 284.453125 C 176.992188 288.652344 174.011719 291.703125 167.800781 291.703125 C 161.589844 291.703125 158.609375 288.652344 154.519531 284.453125 L 154.367188 284.304688 C 149.519531 279.355469 143.457031 273.15625 131.691406 273.15625 C 119.820312 273.15625 113.761719 279.40625 108.910156 284.402344 L 108.859375 284.453125 C 104.769531 288.652344 101.789062 291.703125 95.578125 291.703125 C 89.367188 291.703125 86.386719 288.652344 82.296875 284.453125 L 82.195312 284.355469 C 77.292969 279.355469 71.234375 273.15625 59.464844 273.15625 L 56.4375 273.15625 L 56.4375 286.152344 L 59.464844 286.152344 C 65.679688 286.152344 68.660156 289.203125 72.75 293.402344 L 72.902344 293.550781 C 77.75 298.5 83.808594 304.699219 95.578125 304.699219 C 107.445312 304.699219 113.507812 298.449219 118.355469 293.453125 L 118.40625 293.402344 C 122.496094 289.203125 125.476562 286.152344 131.691406 286.152344 C 137.902344 286.152344 140.882812 289.203125 144.972656 293.402344 L 145.074219 293.5 C 149.972656 298.5 156.03125 304.699219 167.800781 304.699219 C 179.667969 304.699219 185.730469 298.449219 190.578125 293.453125 L 190.628906 293.402344 C 194.71875 289.203125 197.699219 286.152344 203.914062 286.152344 C 210.175781 286.152344 213.105469 289.203125 217.144531 293.402344 C 221.992188 298.402344 228.054688 304.648438 239.921875 304.648438 C 251.792969 304.648438 257.851562 298.402344 262.699219 293.402344 L 262.75 293.351562 C 266.84375 289.152344 269.824219 286.101562 276.035156 286.101562 C 282.246094 286.101562 285.226562 289.152344 289.316406 293.351562 L 289.417969 293.453125 C 294.316406 298.449219 300.378906 304.648438 312.09375 304.648438 L 315.125 304.648438 L 315.125 291.652344 Z M 312.09375 291.652344 " fill-opacity="1" fill-rule="nonzero"/></g><g fill="#f39200" fill-opacity="1"><g transform="translate(37.500002, 168.029754)"><g><path d="M 42.289062 -1.601562 L 39.429688 -1.601562 L 39.429688 -38.457031 L 42.058594 -38.457031 C 42.519531 -38.457031 42.917969 -38.796875 42.917969 -39.257812 C 42.917969 -39.714844 42.519531 -40.058594 42.058594 -40.058594 L 28.15625 -40.058594 C 27.695312 -40.058594 27.296875 -39.714844 27.296875 -39.257812 C 27.296875 -38.796875 27.695312 -38.457031 28.15625 -38.457031 L 30.5 -38.457031 L 30.5 -21.6875 L 15.964844 -21.6875 L 15.964844 -38.457031 L 18.769531 -38.457031 C 19.226562 -38.457031 19.570312 -38.796875 19.570312 -39.257812 C 19.570312 -39.714844 19.226562 -40.058594 18.769531 -40.058594 L 4.519531 -40.058594 C 3.949219 -40.058594 3.605469 -39.714844 3.605469 -39.257812 C 3.605469 -38.796875 3.949219 -38.457031 4.519531 -38.457031 L 7.039062 -38.457031 L 7.039062 -1.601562 L 3.949219 -1.601562 C 3.492188 -1.601562 3.148438 -1.257812 3.148438 -0.800781 C 3.148438 -0.285156 3.492188 0 3.949219 0 L 19.34375 0 C 19.800781 0 20.144531 -0.285156 20.144531 -0.800781 C 20.144531 -1.257812 19.800781 -1.601562 19.34375 -1.601562 L 15.964844 -1.601562 L 15.964844 -20.085938 L 30.5 -20.085938 L 30.5 -1.601562 L 27.238281 -1.601562 C 26.78125 -1.601562 26.378906 -1.257812 26.378906 -0.800781 C 26.378906 -0.34375 26.78125 0 27.238281 0 L 42.289062 0 C 42.746094 0 43.148438 -0.34375 43.148438 -0.800781 C 43.148438 -1.257812 42.746094 -1.601562 42.289062 -1.601562 Z M 42.289062 -1.601562 "/></g></g></g><g fill="#f39200" fill-opacity="1"><g transform="translate(83.79309, 168.029754)"><g><path d="M 22.488281 -40.972656 C 10.015625 -40.972656 1.714844 -32.5625 1.714844 -20.027344 C 1.714844 -7.554688 10.015625 0.859375 22.488281 0.859375 C 34.90625 0.859375 43.203125 -7.554688 43.203125 -20.027344 C 43.203125 -32.5625 34.90625 -40.972656 22.488281 -40.972656 Z M 12.246094 -3.261719 L 12.246094 -36.851562 C 15.105469 -38.457031 18.597656 -39.371094 22.488281 -39.371094 C 26.378906 -39.371094 29.8125 -38.457031 32.675781 -36.851562 L 32.675781 -3.261719 C 29.8125 -1.660156 26.378906 -0.742188 22.488281 -0.742188 C 18.597656 -0.742188 15.105469 -1.660156 12.246094 -3.261719 Z M 12.246094 -3.261719 "/></g></g></g><g fill="#f39200" fill-opacity="1"><g transform="translate(128.712829, 168.029754)"><g><path d="M 31.015625 -40.058594 L 1.03125 -40.058594 C 0.570312 -40.058594 0.171875 -39.714844 0.171875 -39.257812 L 0.171875 -32.21875 C 0.171875 -31.761719 0.570312 -31.359375 1.03125 -31.359375 C 1.546875 -31.359375 1.886719 -31.761719 1.886719 -32.21875 L 1.886719 -38.457031 L 11.445312 -38.457031 L 11.445312 -1.601562 L 8.296875 -1.601562 C 7.839844 -1.601562 7.4375 -1.257812 7.4375 -0.800781 C 7.4375 -0.34375 7.839844 0 8.296875 0 L 23.632812 0 C 24.035156 0 24.433594 -0.34375 24.433594 -0.800781 C 24.433594 -1.257812 24.035156 -1.601562 23.632812 -1.601562 L 20.371094 -1.601562 L 20.371094 -38.457031 L 30.15625 -38.457031 L 30.15625 -32.21875 C 30.15625 -31.761719 30.558594 -31.359375 31.015625 -31.359375 C 31.472656 -31.359375 31.875 -31.761719 31.875 -32.21875 L 31.875 -39.257812 C 31.875 -39.714844 31.472656 -40.058594 31.015625 -40.058594 Z M 31.015625 -40.058594 "/></g></g></g><g fill="#f39200" fill-opacity="1"><g transform="translate(160.757486, 168.029754)"><g><path d="M 58.425781 -40.058594 L 49.785156 -40.058594 C 49.386719 -40.058594 48.984375 -39.714844 48.984375 -39.257812 C 48.984375 -38.855469 49.386719 -38.457031 49.785156 -38.457031 L 53.503906 -38.457031 L 44.980469 -13.734375 L 34.90625 -38.457031 L 36.851562 -38.457031 C 37.3125 -38.457031 37.710938 -38.796875 37.710938 -39.199219 C 37.710938 -39.65625 37.3125 -40.058594 36.851562 -40.058594 L 22.488281 -40.058594 C 22.03125 -40.058594 21.6875 -39.714844 21.6875 -39.257812 C 21.6875 -38.855469 22.03125 -38.457031 22.488281 -38.457031 L 24.777344 -38.457031 L 30.328125 -24.835938 L 24.207031 -11.902344 L 13.503906 -38.457031 L 15.164062 -38.457031 C 15.621094 -38.457031 16.023438 -38.855469 16.023438 -39.257812 C 16.023438 -39.714844 15.621094 -40.058594 15.164062 -40.058594 L 1.03125 -40.058594 C 0.570312 -40.058594 0.285156 -39.714844 0.285156 -39.257812 C 0.285156 -38.855469 0.570312 -38.457031 1.03125 -38.457031 L 3.375 -38.457031 L 19 0.285156 C 19.171875 0.6875 19.457031 0.859375 19.742188 0.859375 C 20.027344 0.859375 20.257812 0.6875 20.429688 0.285156 L 31.074219 -22.832031 L 40.457031 0.285156 C 40.628906 0.6875 40.914062 0.859375 41.203125 0.859375 C 41.488281 0.859375 41.832031 0.6875 41.945312 0.285156 L 55.335938 -38.457031 L 58.425781 -38.457031 C 58.882812 -38.457031 59.226562 -38.855469 59.226562 -39.257812 C 59.226562 -39.714844 58.882812 -40.058594 58.425781 -40.058594 Z M 58.425781 -40.058594 "/></g></g></g><g fill="#f39200" fill-opacity="1"><g transform="translate(220.154551, 168.029754)"><g><path d="M 40.171875 -1.601562 L 37.824219 -1.601562 L 26.210938 -39.3125 C 26.039062 -39.828125 25.695312 -40.058594 25.234375 -40.058594 L 12.703125 -40.058594 C 12.304688 -40.058594 11.960938 -39.714844 11.960938 -39.257812 C 11.960938 -38.796875 12.304688 -38.457031 12.703125 -38.457031 L 16.023438 -38.457031 L 4.121094 -1.601562 L 0.914062 -1.601562 C 0.515625 -1.601562 0.171875 -1.203125 0.171875 -0.800781 C 0.171875 -0.34375 0.515625 0 0.914062 0 L 9.726562 0 C 10.128906 0 10.472656 -0.34375 10.472656 -0.800781 C 10.472656 -1.203125 10.128906 -1.601562 9.726562 -1.601562 L 5.894531 -1.601562 L 9.042969 -11.332031 L 25.636719 -11.332031 L 28.667969 -1.601562 L 25.464844 -1.601562 C 25.066406 -1.601562 24.722656 -1.203125 24.722656 -0.800781 C 24.722656 -0.34375 25.066406 0 25.464844 0 L 40.171875 0 C 40.574219 0 40.914062 -0.34375 40.914062 -0.800781 C 40.914062 -1.203125 40.574219 -1.601562 40.171875 -1.601562 Z M 25.179688 -12.933594 L 9.554688 -12.933594 L 17.566406 -37.597656 Z M 25.179688 -12.933594 "/></g></g></g><g fill="#f39200" fill-opacity="1"><g transform="translate(261.412044, 168.029754)"><g><path d="M 39.429688 -40.058594 L 30.558594 -40.058594 C 30.15625 -40.058594 29.757812 -39.769531 29.757812 -39.3125 C 29.757812 -38.855469 30.15625 -38.457031 30.558594 -38.457031 L 34.449219 -38.457031 L 24.261719 -12.417969 L 13.390625 -38.398438 L 15.738281 -38.398438 C 16.195312 -38.398438 16.539062 -38.796875 16.539062 -39.257812 C 16.539062 -39.65625 16.195312 -40 15.738281 -40 L 1.144531 -40 C 0.628906 -40 0.285156 -39.714844 0.285156 -39.257812 C 0.285156 -38.742188 0.628906 -38.398438 1.144531 -38.398438 L 3.433594 -38.398438 L 19.570312 0.34375 C 19.742188 0.6875 20.027344 0.859375 20.371094 0.859375 C 20.714844 0.859375 21 0.6875 21.117188 0.34375 L 36.222656 -38.457031 L 39.429688 -38.457031 C 39.941406 -38.457031 40.285156 -38.855469 40.285156 -39.3125 C 40.285156 -39.769531 39.941406 -40.058594 39.429688 -40.058594 Z M 39.429688 -40.058594 "/></g></g></g><g fill="#f39200" fill-opacity="1"><g transform="translate(301.868439, 168.029754)"><g><path d="M 29.871094 -9.042969 C 29.472656 -9.042969 29.011719 -8.753906 29.011719 -8.183594 L 29.011719 -1.601562 L 15.566406 -1.601562 L 15.566406 -20.027344 L 26.953125 -20.027344 L 26.953125 -17.109375 C 26.953125 -16.59375 27.355469 -16.308594 27.867188 -16.308594 C 28.269531 -16.308594 28.667969 -16.59375 28.667969 -17.109375 L 28.667969 -24.777344 C 28.667969 -25.292969 28.210938 -25.578125 27.8125 -25.578125 C 27.355469 -25.578125 26.953125 -25.292969 26.953125 -24.777344 L 26.953125 -21.632812 L 15.566406 -21.632812 L 15.566406 -38.457031 L 28.613281 -38.457031 L 28.613281 -32.734375 C 28.613281 -32.21875 29.070312 -31.929688 29.472656 -31.929688 C 29.871094 -31.929688 30.328125 -32.21875 30.328125 -32.734375 L 30.328125 -39.257812 C 30.328125 -39.714844 29.984375 -40.058594 29.472656 -40.058594 L 4.234375 -40.058594 C 3.71875 -40.058594 3.433594 -39.65625 3.433594 -39.257812 C 3.433594 -38.796875 3.71875 -38.457031 4.234375 -38.457031 L 6.636719 -38.457031 L 6.636719 -1.601562 L 3.949219 -1.601562 C 3.433594 -1.601562 3.148438 -1.257812 3.148438 -0.800781 C 3.148438 -0.402344 3.433594 0 3.949219 0 L 29.871094 0 C 30.328125 0 30.730469 -0.34375 30.730469 -0.800781 L 30.730469 -8.183594 C 30.730469 -8.753906 30.273438 -9.042969 29.871094 -9.042969 Z M 29.871094 -9.042969 "/></g></g></g></svg>